<svg width="1920" height="185" viewBox="0 0 1920 185" fill="none" xmlns="http://www.w3.org/2000/svg">
<g filter="url(#filter0_d_3_279)">
<rect y="18.9312" width="1920" height="30.5747" fill="#E9E9E9"/>
<rect y="36" width="1920" height="119" fill="#E9E9E9"/>
<rect x="50" width="50" height="45.8621" rx="5" fill="#E9E9E9"/>
<rect x="125" width="50" height="45.8621" rx="5" fill="#E9E9E9"/>
<rect x="200" width="50" height="45.8621" rx="5" fill="#E9E9E9"/>
<rect x="275" width="50" height="45.8621" rx="5" fill="#E9E9E9"/>
<rect x="350" width="50" height="45.8621" rx="5" fill="#E9E9E9"/>
<rect x="425" width="50" height="45.8621" rx="5" fill="#E9E9E9"/>
<rect x="500" width="50" height="45.8621" rx="5" fill="#E9E9E9"/>
<rect x="575" width="50" height="45.8621" rx="5" fill="#E9E9E9"/>
<rect x="650" width="50" height="45.8621" rx="5" fill="#E9E9E9"/>
<rect x="725" width="50" height="45.8621" rx="5" fill="#E9E9E9"/>
<rect x="800" width="50" height="45.8621" rx="5" fill="#E9E9E9"/>
<rect x="875" width="50" height="45.8621" rx="5" fill="#E9E9E9"/>
<rect x="950" width="50" height="45.8621" rx="5" fill="#E9E9E9"/>
<rect x="1025" width="50" height="45.8621" rx="5" fill="#E9E9E9"/>
<rect x="1100" width="50" height="45.8621" rx="5" fill="#E9E9E9"/>
<rect x="1175" width="50" height="45.8621" rx="5" fill="#E9E9E9"/>
<rect x="1250" width="50" height="45.8621" rx="5" fill="#E9E9E9"/>
<rect x="1325" width="50" height="45.8621" rx="5" fill="#E9E9E9"/>
<rect x="1400" width="50" height="45.8621" rx="5" fill="#E9E9E9"/>
<rect x="1475" width="50" height="45.8621" rx="5" fill="#E9E9E9"/>
<rect x="1550" width="50" height="45.8621" rx="5" fill="#E9E9E9"/>
<rect x="1625" width="50" height="45.8621" rx="5" fill="#E9E9E9"/>
<rect x="1700" width="50" height="45.8621" rx="5" fill="#E9E9E9"/>
<rect x="1775" width="50" height="45.8621" rx="5" fill="#E9E9E9"/>
<rect x="1850" width="50" height="45.8621" rx="5" fill="#E9E9E9"/>
<rect x="12" y="131.138" width="50" height="45.8621" rx="5" fill="#E9E9E9"/>
<rect x="87" y="131.138" width="50" height="45.8621" rx="5" fill="#E9E9E9"/>
<rect x="162" y="131.138" width="50" height="45.8621" rx="5" fill="#E9E9E9"/>
<rect x="237" y="131.138" width="50" height="45.8621" rx="5" fill="#E9E9E9"/>
<rect x="312" y="131.138" width="50" height="45.8621" rx="5" fill="#E9E9E9"/>
<rect x="387" y="131.138" width="50" height="45.8621" rx="5" fill="#E9E9E9"/>
<rect x="462" y="131.138" width="50" height="45.8621" rx="5" fill="#E9E9E9"/>
<rect x="537" y="131.138" width="50" height="45.8621" rx="5" fill="#E9E9E9"/>
<rect x="612" y="131.138" width="50" height="45.8621" rx="5" fill="#E9E9E9"/>
<rect x="687" y="131.138" width="50" height="45.8621" rx="5" fill="#E9E9E9"/>
<rect x="762" y="131.138" width="50" height="45.8621" rx="5" fill="#E9E9E9"/>
<rect x="837" y="131.138" width="50" height="45.8621" rx="5" fill="#E9E9E9"/>
<rect x="912" y="131.138" width="50" height="45.8621" rx="5" fill="#E9E9E9"/>
<rect x="987" y="131.138" width="50" height="45.8621" rx="5" fill="#E9E9E9"/>
<rect x="1062" y="131.138" width="50" height="45.8621" rx="5" fill="#E9E9E9"/>
<rect x="1137" y="131.138" width="50" height="45.8621" rx="5" fill="#E9E9E9"/>
<rect x="1212" y="131.138" width="50" height="45.8621" rx="5" fill="#E9E9E9"/>
<rect x="1287" y="131.138" width="50" height="45.8621" rx="5" fill="#E9E9E9"/>
<rect x="1362" y="131.138" width="50" height="45.8621" rx="5" fill="#E9E9E9"/>
<rect x="1437" y="131.138" width="50" height="45.8621" rx="5" fill="#E9E9E9"/>
<rect x="1512" y="131.138" width="50" height="45.8621" rx="5" fill="#E9E9E9"/>
<rect x="1587" y="131.138" width="50" height="45.8621" rx="5" fill="#E9E9E9"/>
<rect x="1662" y="131.138" width="50" height="45.8621" rx="5" fill="#E9E9E9"/>
<rect x="1737" y="131.138" width="50" height="45.8621" rx="5" fill="#E9E9E9"/>
<rect x="1812" y="131.138" width="50" height="45.8621" rx="5" fill="#E9E9E9"/>
<rect x="1891" y="131" width="29" height="46" rx="5" fill="#E9E9E9"/>
</g>
<defs>
<filter id="filter0_d_3_279" x="-4" y="0" width="1928" height="185" filterUnits="userSpaceOnUse" color-interpolation-filters="sRGB">
<feFlood flood-opacity="0" result="BackgroundImageFix"/>
<feColorMatrix in="SourceAlpha" type="matrix" values="0 0 0 0 0 0 0 0 0 0 0 0 0 0 0 0 0 0 127 0" result="hardAlpha"/>
<feOffset dy="4"/>
<feGaussianBlur stdDeviation="2"/>
<feComposite in2="hardAlpha" operator="out"/>
<feColorMatrix type="matrix" values="0 0 0 0 0 0 0 0 0 0 0 0 0 0 0 0 0 0 0.25 0"/>
<feBlend mode="normal" in2="BackgroundImageFix" result="effect1_dropShadow_3_279"/>
<feBlend mode="normal" in="SourceGraphic" in2="effect1_dropShadow_3_279" result="shape"/>
</filter>
</defs>
</svg>
