<svg width="173" height="109" viewBox="0 0 173 109" fill="none" xmlns="http://www.w3.org/2000/svg">
<path fill-rule="evenodd" clip-rule="evenodd" d="M38.0356 76.6682L42.7088 76.7974V82.6393L38.0356 82.5101V76.6682ZM46.7331 82.5101H44.7849V76.6682L49.4595 76.5376V82.3795C48.3846 82.3795 47.8322 82.5101 46.7331 82.5101ZM51.5356 82.1196V76.2791C52.9456 76.2791 55.1111 75.5904 56.2088 75.4995C56.2088 76.14 56.2613 80.8544 56.1847 81.0574C56.0384 81.4508 54.7831 81.536 53.9694 81.6979C53.2623 81.8399 52.2356 82.104 51.5356 82.1196ZM31.2849 75.3703C32.4479 75.6416 34.6489 76.1485 35.9582 76.1485V82.1196C34.984 82.1196 31.9126 81.5133 31.2849 81.2122V75.3703ZM25.4431 73.2929C25.9827 73.655 26.5635 73.9546 27.2223 74.24C27.8741 74.5212 28.6352 74.7058 29.2075 74.9798V80.6925C28.1354 80.4426 26.119 79.4883 25.6007 78.7173C25.2684 78.2217 25.4431 74.1704 25.4431 73.2929ZM58.2862 80.6925V74.9798C59.4776 74.409 60.3694 74.4189 62.0507 73.2929C62.0507 74.4913 62.3616 77.9334 61.8575 78.6818C61.4301 79.3151 59.1581 80.4894 58.2862 80.6925ZM43.7469 74.7214C38.5426 74.7214 33.3411 74.1619 28.7034 72.6283C27.9991 72.3954 27.37 72.066 26.7381 71.738C22.9652 69.7841 27.6696 68.1993 28.6878 67.7108C31.3332 69.4816 32.0958 69.7201 35.5662 70.5679C36.8357 70.8774 38.4403 71.1345 39.7609 71.3077C40.5405 71.41 41.2022 71.4369 41.9846 71.5505L44.2623 71.7394C45.049 71.7621 45.9578 71.6783 46.726 71.7422C48.9441 71.9268 47.2571 71.826 48.9384 71.7337C52.0993 71.5633 54.7575 71.6244 58.0392 70.9683C59.0573 70.7639 61.3123 70.4018 62.0507 70.0468C61.5366 72.2534 56.0398 73.4207 54.3173 73.7373C51.1096 74.328 47.4602 74.7214 43.7469 74.7214ZM50.4975 69.5285H48.9398V63.6866L53.4838 63.5559V69.3978C52.3251 69.3978 51.6776 69.5285 50.4975 69.5285ZM42.1891 63.5559L46.7331 63.6866V69.5285L42.1891 69.3978V63.5559ZM55.6905 69.138V63.2975L60.2331 62.5179V68.2306C59.5926 68.5373 56.6646 69.138 55.6905 69.138ZM35.4384 62.5179C35.836 62.5506 36.1953 62.6841 36.512 62.7423L39.9824 63.2975V69.138C39.0523 69.138 36.049 68.5231 35.4384 68.2306V62.5179ZM29.5966 60.3112C31.9779 61.5708 31.816 61.257 33.361 61.9982V67.7108C32.4011 67.4865 30.2427 66.4201 29.7897 65.7001C29.2813 64.895 29.5966 61.5523 29.5966 60.3112ZM62.4412 67.7108V61.9982C63.0248 61.7185 63.8143 61.4785 64.4079 61.2399C65.159 60.9389 65.5666 60.6492 66.2056 60.3112C66.2056 64.7686 66.9099 65.5922 64.4774 66.8915C63.7958 67.255 63.0858 67.4013 62.4412 67.7108ZM48.2909 61.6091C43.0511 61.6091 37.5216 61.1377 32.8895 59.4848C31.8742 59.1227 29.6974 58.275 29.5966 57.0651C30.1078 57.1077 30.795 57.3321 31.2849 57.4556C35.1843 58.4368 38.6434 58.735 42.5839 58.7492L44.5236 58.7549C45.1654 58.7166 45.9479 58.7507 46.6039 58.7535C47.8194 58.7606 51.3439 58.3786 52.4387 58.2267C55.5456 57.7992 59.5358 56.9103 62.0933 55.2901C62.6613 54.9323 62.6811 54.245 64.8836 55.6621C66.7409 56.8564 66.8588 57.5848 64.6904 58.7975C64.1821 59.0815 63.7177 59.2264 63.1455 59.4592C59.3924 60.9843 52.5494 61.6091 48.2909 61.6091ZM45.4352 56.676H44.7849V50.8342L49.4595 50.7049V56.5468C47.9614 56.5468 46.9475 56.676 45.4352 56.676ZM38.0356 50.5743L42.7088 50.7049V56.676L38.0356 56.5468V50.5743ZM51.5356 56.1563V50.3158C52.7752 50.2874 55.1992 49.6201 56.2088 49.5363V55.2489C55.3014 55.4591 52.2683 56.1407 51.5356 56.1563ZM31.2849 49.5363C32.2946 49.6201 34.7185 50.2874 35.9582 50.3158V56.1563C35.038 56.1563 31.8757 55.5315 31.2849 55.2489V49.5363ZM58.2862 54.7292V49.0166C59.3725 48.4954 60.5228 48.3534 62.0507 47.3296C62.0507 48.44 62.2764 52.0894 61.8774 52.7384C61.4699 53.3987 59.1752 54.5219 58.2862 54.7292ZM25.4431 47.3296C26.9738 48.3548 28.097 48.484 29.2075 49.0166V54.7292C28.178 54.4892 26.0948 53.5094 25.6177 52.7369C25.2173 52.0908 25.4431 48.4386 25.4431 47.3296ZM25.4431 44.2141C25.4431 41.1029 37.8411 39.663 41.0205 39.6701H46.4733C47.5709 39.6687 48.1829 39.7525 49.1968 39.8022C52.0723 39.9427 62.0507 41.5331 62.0507 44.2141C62.0507 46.7247 51.9758 48.4102 49.1997 48.4983C47.4658 48.5522 45.5275 48.7581 43.7469 48.7581C38.713 48.7581 31.248 48.0936 26.7835 45.7293C26.2283 45.4353 25.4431 44.9781 25.4431 44.2141ZM23.2364 44.3433V52.132C23.2364 54.191 26.0111 55.9348 27.5205 56.287C27.5205 57.0268 27.3899 57.1844 27.3899 57.9739V64.4647C27.3899 65.1861 27.5205 65.2344 27.5205 65.8933C25.8052 66.8006 23.2364 67.7279 23.2364 70.3066V78.0953C23.2364 81.3997 28.9746 82.9105 31.4397 83.524C33.1579 83.9514 35.3376 84.295 37.2532 84.4612L42.0642 84.7111C42.8026 84.721 42.9715 84.8559 43.7469 84.8559L46.9958 84.7196C49.2707 84.7295 54.0816 83.9599 56.0923 83.5609C58.9238 82.9986 64.2573 81.2051 64.2573 78.0953V70.4373C64.2573 69.784 64.1409 69.855 64.1281 69.2686C65.7569 68.8895 68.4123 67.1727 68.4123 65.2443V57.325C68.4123 55.0359 65.7682 53.4242 64.1281 53.0408C64.1281 50.4025 64.1224 47.7613 64.1281 45.1229C64.1352 42.476 63.279 41.5857 60.926 40.4057C59.0516 39.467 57.1843 38.9686 54.901 38.5128C51.7912 37.8923 50.5657 37.9973 47.8663 37.6281C46.7331 37.4734 45.2194 37.6111 44.1161 37.4805L38.4233 37.7219C35.447 37.763 29.3495 38.9928 26.9554 40.1444C25.3451 40.9197 23.2364 42.0671 23.2364 44.3433Z" fill="#ED9818"/>
<path fill-rule="evenodd" clip-rule="evenodd" d="M7.00862 53.1715C4.21122 53.1715 4.3021 49.2935 6.89644 49.2253C9.54474 49.1557 9.61716 53.1715 7.00862 53.1715ZM17.6544 36.5546C17.6544 33.3596 21.548 33.8623 21.548 36.0349C21.548 36.7066 21.5594 37.1212 21.0254 37.719C20.0627 38.794 17.6544 38.1749 17.6544 36.5546ZM36.9962 27.7265C36.9962 26.6033 37.2717 25.3906 38.9444 25.3906C41.6481 25.3906 41.4749 29.4149 38.9444 29.4149C38.074 29.4149 36.9962 28.5913 36.9962 27.7265ZM56.2088 20.5867C56.2088 21.0766 56.3479 21.4274 56.9614 21.6532C57.2866 21.7724 57.9 21.7554 58.4169 21.7554C58.0874 22.2055 56.2088 23.4111 55.5953 23.8684C51.5398 26.8944 53.0635 26.2994 47.9018 26.2994C46.2134 26.2994 44.5264 26.2994 42.8381 26.2994C42.4674 24.709 40.806 23.3131 39.3335 23.3131C37.8184 23.3131 37.4151 23.3089 36.2138 24.2177C35.6486 24.6465 35.1374 25.3764 34.8988 26.1475C34.3663 27.8671 35.7693 27.2579 31.5874 29.3283L27.3359 31.5676C26.633 31.9879 25.8818 32.2932 25.1818 32.6582L22.9765 33.8282C22.2154 33.3199 22.1827 32.8555 21.1618 32.3983C18.3502 31.1373 15.4463 33.5357 15.4463 35.6458C15.4463 37.1709 15.3596 37.1113 16.0966 38.5015L9.17554 46.8993C8.95402 47.162 8.88302 47.1819 8.697 47.4588C7.65046 47.216 6.00894 46.4435 4.1814 48.1376C1.32152 50.7887 3.38478 55.3782 6.8794 55.3782C9.61574 55.3782 12.3038 52.5169 10.384 48.8873C10.9221 48.0836 11.6094 47.4574 12.22 46.6991C12.5438 46.2987 12.8079 45.955 13.1487 45.5503L17.3917 40.5775C17.6203 40.2779 17.589 40.2765 17.9128 40.0592C19.3101 40.3844 20.9147 41.0347 22.6883 39.122C23.4664 38.2814 23.7547 37.4805 23.7547 35.9057C24.3695 35.7623 33.7671 30.7568 35.5691 29.804C36.9025 31.7948 39.5309 32.0092 41.543 30.5864C42.2843 30.061 42.5356 29.3226 42.9687 28.5061H51.1465C53.1941 28.5118 53.1089 28.4266 55.1338 26.9114L59.9746 23.4438C59.959 24.1197 59.6594 24.5514 59.658 25.1563C59.6565 26.1702 61.3492 26.7992 61.7638 25.233L62.2054 21.9088C62.4667 19.9776 62.0237 20.1693 58.8429 19.7702C57.8304 19.6439 56.2088 19.1241 56.2088 20.5867Z" fill="#ED9818"/>
<path d="M107.466 17.7105C137.959 34.2033 144.797 64.0754 116.738 95.4979" stroke="#ED9818" stroke-width="4"/>
<path d="M97.5201 23.4237C123.108 37.2637 128.846 62.3309 105.301 88.6991" stroke="#ED9818" stroke-width="4"/>
<path d="M86.7253 34.0895C106.263 44.657 110.645 63.7971 92.6662 83.9306" stroke="#ED9818" stroke-width="4"/>
</svg>
