<svg width="191" height="122" viewBox="0 0 191 122" fill="none" xmlns="http://www.w3.org/2000/svg">
<path fill-rule="evenodd" clip-rule="evenodd" d="M52.2144 33.2727C50.64 33.404 47.449 34.8443 45.9253 35.6964C44.6587 36.4063 43.4592 37.1175 42.2883 37.9956C42.0873 38.1461 42.0586 38.2022 41.8794 38.3444L39.111 40.7531C38.0468 41.8063 36.6366 43.5365 35.8201 44.7853C33.2186 48.7711 31 54.4173 31 59.2852C31 63.5295 31.2421 66.8847 32.8055 70.7377C33.8094 73.2107 35.0322 75.4415 36.5546 77.5972C36.716 77.8256 36.783 77.8625 36.9553 78.08L38.1686 79.5175C38.7649 80.144 39.256 80.8621 39.944 81.4037C40.9151 82.1683 41.8493 83.0642 42.8683 83.7823L45.0198 85.1679C48.3394 87.0787 53.4016 88.9539 57.2601 88.9635C58.0206 88.9648 58.3393 89.0031 58.9193 89.0729C59.7126 89.1686 59.9943 88.9594 60.6741 88.9594V86.9391C56.2439 86.9391 52.094 86.4536 48.215 84.4976C47.4805 84.127 46.7829 83.8274 46.1523 83.4034C44.563 82.3311 42.8724 81.3381 41.5128 79.9607L40.6292 79.2043C40.4268 78.9773 40.5116 79.0073 40.3105 78.7653C40.1847 78.6148 40.0766 78.5232 39.9344 78.3836C39.5842 78.0376 39.4666 77.9295 39.1561 77.5206L37.7268 75.6658C36.3439 73.8494 35.2087 71.4859 34.4879 69.3084C32.4717 63.2135 32.5483 56.8246 34.9146 50.9513C35.619 49.2033 36.4438 47.6727 37.4136 46.1258C40.4514 41.2783 46.415 37.0149 51.8861 35.4707C52.7328 35.2313 53.4385 34.9345 54.3604 34.914V30.3689H64.2099V34.7882C64.7488 35.0467 65.8115 35.2423 66.3805 35.3955C68.4938 35.9645 70.6056 36.8918 72.4207 37.9409C75.33 39.6233 78.0573 41.8637 80.0707 44.561C82.1839 47.3937 84.0496 50.716 84.7841 54.2422C85.5296 57.8176 85.5501 59.0117 85.5501 62.6938L87.5703 62.821C87.5703 61.765 87.8274 60.9129 87.6441 59.8419C87.4827 58.8913 87.5498 57.938 87.3897 56.9395L86.9069 54.2655C86.1259 50.2674 84.1536 46.6031 81.7421 43.3943C79.2801 40.1184 75.9468 37.2953 72.2497 35.4611C70.7123 34.6979 68.0328 33.4122 66.3559 33.2727V28.3486H52.2144V33.2727Z" fill="#ED9818"/>
<path fill-rule="evenodd" clip-rule="evenodd" d="M71.3757 69.4818C71.5836 69.7759 73.7939 72.0382 73.9321 72.0382C74.1181 72.0382 75.278 71.5047 75.7006 71.4063V67.7447H80.2458V71.4063C80.7546 71.5253 81.4727 71.818 81.8871 72.0382L84.5106 69.4831L87.7932 72.6988L85.2683 75.2921C85.4543 75.9979 85.7853 76.4725 85.9289 77.0894H89.5905V81.6346H85.9289C84.9113 83.7533 85.2546 83.4236 86.4651 84.6341C86.9233 85.0923 87.3022 85.5806 87.822 85.928L84.6364 89.1806C84.252 88.9331 82.1593 86.6858 82.0143 86.6858C81.7285 86.6858 80.5043 87.1932 80.2458 87.3163V90.9793H75.7006V87.3163C73.5819 86.3001 73.9116 86.642 72.7011 87.8539C72.2429 88.3121 71.7546 88.691 71.4072 89.2107L68.093 85.9595L70.6795 83.306C70.4073 82.7726 70.2527 82.1242 70.0189 81.6346H66.3559V77.0894H70.0189C70.1023 76.731 70.6494 75.5192 70.6494 75.3209C70.6494 75.1827 68.3871 72.971 68.1245 72.7959L71.3757 69.4818ZM73.5532 68.6283L71.4359 66.5793L65.2507 72.7002L67.3954 74.9133C65.9688 74.9803 64.2099 74.678 64.2099 75.3209V83.6548H67.3667L65.1906 85.8993L71.3114 92.0845L73.5245 89.9398L73.5532 92.9995H82.3932V89.9685L84.6364 92.1446L90.7572 85.9581L88.551 83.6835L91.6107 83.6548V74.942H88.5797L90.7559 72.6988L84.5694 66.578L82.4219 68.657C82.3508 67.2454 82.6572 65.5986 82.0143 65.5986H73.9321C73.3056 65.5986 73.5532 67.4082 73.5532 68.6283Z" fill="#ED9818"/>
<path fill-rule="evenodd" clip-rule="evenodd" d="M60.1694 82.3927H60.6741C60.6741 80.1468 60.8574 80.2384 59.926 80.2371C58.405 80.2343 57.8934 80.3109 56.3259 80.0483C55.4971 79.9088 54.9445 79.7912 54.2346 79.6147C52.3689 79.1497 50.6127 78.3331 49.0329 77.3661L46.8144 75.7972C46.1674 75.179 45.6695 74.915 44.9241 74.0246C44.6656 73.7155 44.6587 73.6457 44.3523 73.3338C44.1157 73.0917 43.9953 72.9085 43.7888 72.6349C41.8985 70.1196 40.3584 67.0325 39.9604 63.8359C39.5131 60.2551 39.5815 57.5865 40.8317 54.0905C41.6004 51.943 42.3978 50.567 43.7341 48.7848C43.9064 48.555 44.0364 48.3512 44.2265 48.1406C45.1402 47.1339 46.0634 46.0821 47.1618 45.2669C50.2858 42.9485 54.3057 41.102 58.275 41.102C60.9723 41.102 60.138 41.0486 62.6903 41.3591C65.3424 41.6805 68.8795 43.341 71.0638 44.981C72.3646 45.959 73.7789 47.3213 74.7651 48.6043C76.576 50.9596 78.0026 53.8702 78.5552 56.8082C78.6195 57.1488 78.6578 57.5783 78.6961 57.804C78.7727 58.2567 78.8424 58.4865 78.8616 58.9023L78.8575 62.315C78.8575 62.8074 79.2747 62.6911 79.7397 62.6952C80.3744 62.7007 80.3128 62.8087 80.8777 62.821L81.0035 61.0525C81.0035 57.1789 80.2964 54.2095 78.7303 51.0772L77.197 48.4442C75.992 46.8576 76.0385 46.8494 74.6803 45.405C73.1607 43.7897 72.0637 43.1851 70.3458 42.0375C67.8126 40.3442 64.8691 39.6247 61.8874 39.131C58.7811 38.6153 54.2756 39.3375 51.3677 40.5083C49.0315 41.448 47.9264 42.1346 46.0621 43.5366L42.4156 47.0874C41.77 47.9341 40.3461 49.9392 39.9809 50.8406C39.1671 52.8512 38.6678 53.4695 38.1016 56.1572C37.0333 61.2153 37.8759 66.2022 39.7142 69.8911C40.7537 71.9743 40.9137 72.2902 42.4156 74.2612C43.477 75.6522 45.8569 77.8311 47.2931 78.727C48.8168 79.679 49.5513 80.1181 51.2761 80.8047C51.8287 81.0249 52.3375 81.2 52.86 81.3682C53.9761 81.728 54.9746 81.9701 56.2603 82.1356C57.5022 82.2956 58.7743 82.3927 60.1694 82.3927Z" fill="#ED9818"/>
<path fill-rule="evenodd" clip-rule="evenodd" d="M77.9739 81.6352C77.3611 81.6352 76.7648 81.3548 76.4214 81.0416C75.1111 79.8461 75.5105 77.0901 78.0997 77.0901C80.9584 77.0901 80.9816 81.6352 77.9739 81.6352ZM77.4678 83.6554C78.8889 83.6554 80.1227 83.5501 81.2224 82.2329C82.3494 80.8829 82.6996 79.0939 81.8899 77.4662L80.994 76.2147C77.9848 73.3587 74.9606 76.1955 74.7664 76.4089C74.0483 77.1954 73.7597 77.9176 73.6216 79.0597C73.3453 81.3671 75.5762 83.6554 77.4678 83.6554Z" fill="#ED9818"/>
<path fill-rule="evenodd" clip-rule="evenodd" d="M58.275 60.0426V60.2943L51.9299 66.5765L53.3196 68.0277L60.2652 61.1478L60.2953 60.9262V49.3096H58.275V60.0426Z" fill="#ED9818"/>
<path fill-rule="evenodd" clip-rule="evenodd" d="M55.8759 32.6425C55.8759 33.8749 55.705 34.4097 56.2548 34.4097H62.6944C62.6944 32.9736 62.8982 32.2637 62.3155 32.2637H56.2548C55.9635 32.2637 55.8759 32.3512 55.8759 32.6425Z" fill="#ED9818"/>
<path fill-rule="evenodd" clip-rule="evenodd" d="M45.9007 50.0674L48.6485 52.7483L50.0957 51.2314C49.6525 50.9264 47.5612 48.6777 47.4162 48.6777C47.0428 48.6777 46.0922 49.7802 45.9007 50.0674Z" fill="#ED9818"/>
<path fill-rule="evenodd" clip-rule="evenodd" d="M45.8692 71.377C47.7144 72.6217 46.6502 73.4984 48.7101 71.4385C49.1888 70.9598 49.7031 70.5618 50.067 70.0188L48.6486 68.6592L45.8692 71.377Z" fill="#ED9818"/>
<path fill-rule="evenodd" clip-rule="evenodd" d="M68.5977 51.2982L69.9874 52.7481L72.7011 50.0973L71.3114 48.6475L68.5977 51.2982Z" fill="#ED9818"/>
<path fill-rule="evenodd" clip-rule="evenodd" d="M73.3015 61.6843H76.7101V59.6641H73.3015V61.6843Z" fill="#ED9818"/>
<path fill-rule="evenodd" clip-rule="evenodd" d="M41.9861 61.6843H45.3946V59.6641H41.9861V61.6843Z" fill="#ED9818"/>
<path fill-rule="evenodd" clip-rule="evenodd" d="M58.275 43.6269V46.6579H60.2953V43.248H58.6539C58.3626 43.248 58.275 43.337 58.275 43.6269Z" fill="#ED9818"/>
<path fill-rule="evenodd" clip-rule="evenodd" d="M58.275 77.7201C58.275 78.0114 58.3626 78.099 58.6539 78.099H60.2953V74.6904H58.275V77.7201Z" fill="#ED9818"/>
<path d="M125.468 25.7105C155.96 42.2033 162.799 72.0754 134.74 103.498" stroke="#ED9818" stroke-width="4"/>
<path d="M115.522 31.4237C141.109 45.2637 146.848 70.3309 123.302 96.6991" stroke="#ED9818" stroke-width="4"/>
<path d="M104.727 42.0895C124.264 52.657 128.646 71.7971 110.668 91.9306" stroke="#ED9818" stroke-width="4"/>
</svg>
