<svg width="166" height="109" viewBox="0 0 166 109" fill="none" xmlns="http://www.w3.org/2000/svg">
<path fill-rule="evenodd" clip-rule="evenodd" d="M51.0996 80.5546H57.9342C57.9505 81.2961 58.4433 82.8545 58.6446 83.6567C58.8474 84.4722 59.3639 86.112 59.3802 86.8639H49.6536C49.6699 86.1224 50.1627 84.5639 50.364 83.7618C50.5683 82.9463 51.0833 81.305 51.0996 80.5546ZM37.1669 74.2454L38.7756 75.792C37.5842 76.0939 37.4466 76.7495 36.6415 75.8231C36.6903 75.2429 37.0144 74.9025 37.1669 74.2454ZM38.2191 72.1423C38.2191 71.5074 38.9443 70.6608 39.008 69.909C39.4831 70.0348 42.9551 73.5069 43.0824 73.9834C42.4253 74.0382 41.3538 74.7708 40.9793 74.7708C40.5812 74.7708 39.8516 73.8413 39.5659 73.5557C39.3721 73.3618 38.2191 72.2785 38.2191 72.1423ZM57.8025 78.4515H50.8361C50.549 78.4515 48.1396 76.6533 47.6423 75.5996C46.8372 73.8946 47.37 72.4575 47.737 70.6209C48.0863 68.8759 48.4119 67.2894 48.7449 65.5815C48.9166 64.6979 48.9551 63.9135 49.9644 63.7788C50.8376 63.6604 51.363 64.4197 51.363 65.3077V72.1423H53.4661C53.4661 66.7462 53.0073 67.8044 54.6812 66.1291C55.5322 65.2781 58.1621 62.5297 58.7231 62.1538C58.8681 62.6984 59.9648 64.1355 59.7265 65.7768L57.8025 78.4515ZM53.3344 64.2569C53.3048 62.9633 51.7656 61.6284 50.4425 61.6284C47.2338 61.6284 46.9275 63.4947 46.4006 66.1291C46.1741 67.2613 45.9521 68.3727 45.7435 69.4147C45.6029 70.1162 45.2625 72.2326 45.0538 72.6677L40.2897 67.9687L53.4321 54.7597L58.2287 59.4927C57.9653 59.8775 53.9027 64.1044 53.3344 64.2569ZM44.8229 60.3452C43.9823 59.7725 42.002 58.5263 43.5175 57.5954C43.9023 57.3601 44.2279 57.4133 44.7874 57.4178C45.7523 57.4267 46.7173 57.4222 47.6823 57.4222L44.8229 60.3452ZM55.0097 53.2486L56.5889 51.6073L61.3841 56.3374L59.8064 57.9787L55.0097 53.2486ZM58.1651 50.0933C58.8193 49.1313 60.9934 46.9068 62.6658 46.9068C65.2543 46.9068 67.5394 50.2427 64.8695 52.923C64.3382 53.4573 63.4842 54.4208 62.9292 54.7937L58.1651 50.0933ZM13.5091 53.7415V46.9068H11.406V54.3986C11.406 55.6166 12.5101 56.9264 13.5091 57.1588V63.3363C12.8727 62.9101 12.775 62.7754 12.2303 62.25C11.9388 61.9673 11.8663 61.9629 11.5762 61.7201L9.02022 59.4128C6.89198 57.7153 5.09674 55.0424 5.09674 52.1638C5.09674 51.1796 5.34834 50.1421 5.4919 49.2733L7.0681 40.5976C9.49382 40.5976 12.3295 40.4599 14.7019 40.5887C15.7587 40.6449 17.0418 42.6133 17.3748 43.5665C18.0408 45.4697 17.5317 46.4451 17.1129 48.5393C16.9175 49.5146 16.0754 54.5125 15.6299 54.9432C14.9669 55.5841 13.5091 55.3413 13.5091 53.7415ZM17.7152 32.1867H42.9507V38.7579C42.9507 39.5793 43.9704 40.5976 44.7903 40.5976H51.363V53.6097C51.363 53.8243 50.2649 55.2821 49.4005 55.3295C46.8979 55.4642 43.7277 54.9003 42.2625 55.8135C40.6079 56.8465 40.3962 59.1405 41.6113 60.6013L43.2127 61.7586C42.9877 62.6037 38.3583 66.4325 37.7574 67.4759C37.4747 67.9687 37.1284 68.9041 36.9227 69.4013C36.6415 70.0836 36.378 70.6534 36.0968 71.3357C35.5581 72.6411 34.5384 74.3741 34.5384 75.8231C34.5384 77.3134 35.7697 78.4515 37.562 78.4515C38.2236 78.4515 39.0465 78.0135 39.5363 77.7974C40.3888 77.4244 44.7415 75.4767 45.3157 75.4279C45.3942 76.3662 46.2526 77.4703 46.741 78.0786C47.0666 78.4856 48.6383 79.6385 49.1282 79.8975C48.9669 80.2335 47.9561 84.2842 47.9457 84.7608H15.6121V57.2905C17.9935 57.0922 18.2954 53.7992 18.6017 52.2629C19.1049 49.7484 19.8183 47.2013 19.8183 44.672C19.8183 41.6528 17.2401 39.8073 16.9515 39.384C16.5963 38.8615 17.3541 35.0106 17.4917 34.0663C17.5672 33.5454 17.7152 32.8439 17.7152 32.1867ZM45.0538 33.7629L49.8179 38.4619L45.0538 38.4945V33.7629ZM5.36018 25.8775H16.401C16.401 27.6683 14.6916 37.0515 14.6916 38.4945H7.0681C7.0681 37.0382 5.36018 27.689 5.36018 25.8775ZM2.99366 51.3764C2.99366 55.6877 4.17618 57.9669 7.10066 60.545C7.83326 61.1903 13.0325 66.1009 13.5091 66.2282V83.0514C13.5091 83.8876 13.3714 85.0316 13.6719 85.6488C13.919 86.152 14.6516 86.8639 15.3487 86.8639H47.2886C47.2693 87.6793 46.9112 88.1515 46.8934 88.9669H62.1404C62.1182 87.9975 59.9056 80.3741 59.9056 79.5023C59.9056 77.0322 61.8769 68.2351 61.8769 65.0457C61.8769 64.211 61.6091 63.1158 61.353 62.5475C61.2183 62.2515 61.0467 61.9022 60.8691 61.5855C60.6441 61.1844 60.4191 61.0231 60.3007 60.5761L64.6697 56.1405C66.8468 53.9635 68.1862 53.296 68.1862 49.9305C68.1862 47.3775 65.5991 44.8037 63.0609 44.8037C61.5632 44.8037 60.7447 44.9177 59.4542 45.7983C58.5114 46.4391 54.3053 51.0775 53.4661 51.6384L53.4676 40.2009C53.4824 38.7727 53.6526 39.2745 52.0527 37.6731C51.585 37.2069 44.7341 30.0837 44.2649 30.0837H18.1089C18.1089 29.1172 18.3783 27.8888 18.5115 26.9357C18.6461 25.9619 18.8977 24.8311 18.8977 23.7744H2.86194C2.86194 24.9303 4.59206 36.3426 4.79482 37.7456C5.08046 39.7229 5.11302 39.0761 4.75782 41.0475C4.45294 42.7465 2.99366 50.2575 2.99366 51.3764Z" fill="#ED9818"/>
<path fill-rule="evenodd" clip-rule="evenodd" d="M19.8184 36.3912H30.3323V51.1127H19.8184V53.2158H32.4354V34.2881H19.8184V36.3912Z" fill="#ED9818"/>
<path fill-rule="evenodd" clip-rule="evenodd" d="M17.7152 79.5017V82.657H19.8183C19.8183 81.516 19.5771 79.5209 20.175 79.589C20.3585 79.6097 20.5287 79.8998 20.6086 80.0182C20.8632 80.3897 21.06 80.7242 21.3412 81.1341C22.1271 82.2796 22.6125 82.657 24.0244 82.657C25.2928 82.657 26.2267 81.6728 26.573 80.6058C27.3811 78.1223 27.7245 80.7878 28.1477 81.5559C28.4911 82.1746 29.0357 82.657 29.9385 82.657H35.5907V80.554H30.0703C29.0343 76.111 25.8878 77.2521 25.0945 78.4701C24.168 79.8909 24.8577 80.4222 23.761 80.4222C23.3348 80.4222 22.5992 79.074 22.3432 78.6862C20.6826 76.1643 17.7152 77.7745 17.7152 79.5017Z" fill="#ED9818"/>
<path fill-rule="evenodd" clip-rule="evenodd" d="M17.7152 59.525H36.6414V57.4219H17.7152V59.525Z" fill="#ED9818"/>
<path fill-rule="evenodd" clip-rule="evenodd" d="M34.5383 49.0103H49.2599V46.9072H34.5383V49.0103Z" fill="#ED9818"/>
<path fill-rule="evenodd" clip-rule="evenodd" d="M17.7152 63.731H28.2291V61.6279H17.7152V63.731Z" fill="#ED9818"/>
<path fill-rule="evenodd" clip-rule="evenodd" d="M17.7152 67.9361H28.2291V65.833H17.7152V67.9361Z" fill="#ED9818"/>
<path fill-rule="evenodd" clip-rule="evenodd" d="M40.8477 44.8033H49.26V42.7002H40.8477V44.8033Z" fill="#ED9818"/>
<path fill-rule="evenodd" clip-rule="evenodd" d="M34.5383 40.5972H40.8476V38.4941H34.5383V40.5972Z" fill="#ED9818"/>
<path fill-rule="evenodd" clip-rule="evenodd" d="M30.3323 63.731H36.6415V61.6279H30.3323V63.731Z" fill="#ED9818"/>
<path fill-rule="evenodd" clip-rule="evenodd" d="M34.5383 44.8033H38.7445V42.7002H34.5383V44.8033Z" fill="#ED9818"/>
<path fill-rule="evenodd" clip-rule="evenodd" d="M34.5383 53.2164H36.6414V51.1133H34.5383V53.2164Z" fill="#ED9818"/>
<path fill-rule="evenodd" clip-rule="evenodd" d="M38.7445 53.2164H40.8476V51.1133H38.7445V53.2164Z" fill="#ED9818"/>
<path fill-rule="evenodd" clip-rule="evenodd" d="M42.9507 53.2164H45.0538V51.1133H42.9507V53.2164Z" fill="#ED9818"/>
<path d="M100.466 17.7105C130.959 34.2033 137.797 64.0754 109.738 95.4979" stroke="#ED9818" stroke-width="4"/>
<path d="M90.52 23.4237C116.108 37.2637 121.846 62.3309 98.3006 88.6991" stroke="#ED9818" stroke-width="4"/>
<path d="M79.7251 34.0895C99.2627 44.657 103.644 63.7971 85.666 83.9306" stroke="#ED9818" stroke-width="4"/>
</svg>
