<svg width="187" height="109" viewBox="0 0 187 109" fill="none" xmlns="http://www.w3.org/2000/svg">
<path fill-rule="evenodd" clip-rule="evenodd" d="M76.052 65.8428C76.5901 66.2032 76.8913 66.5834 77.3158 67.1338L81.0626 71.2218C81.8969 72.303 85.6906 75.8553 85.9276 76.7415L72.3003 76.7465C70.1381 76.7761 70.4121 77.297 73.4974 71.1231L76.052 65.8428ZM45.4061 71.634C45.4061 61.6462 56.2912 58.9999 61.5412 64.179C65.4583 68.0448 65.5891 73.9866 61.5387 78.0622C57.0168 82.6118 49.0987 81.0566 46.3663 75.4406C45.8751 74.4334 45.4061 73.051 45.4061 71.634ZM24.6333 61.587C35.538 61.587 38.1396 75.7664 28.7207 79.9778C23.6534 82.244 17.2063 79.5458 15.6019 73.3448C14.1185 67.6004 18.7662 61.587 24.6333 61.587ZM5.73629 43.0258C9.72993 45.7017 8.62909 49.3577 8.62909 54.4355C8.62909 59.2023 8.62909 63.9716 8.62909 68.7384C7.86146 68.5607 6.98276 67.8053 6.55575 67.2375C6.09912 66.6327 5.78072 65.4651 5.73382 64.4826C5.62522 62.214 5.73629 59.6343 5.73629 57.3312C5.73629 52.5619 5.73629 47.7951 5.73629 43.0258ZM32.1244 47.4544L37.0462 49.0022C37.172 49.0466 37.256 49.0713 37.4139 49.1454C37.7619 49.3058 37.5645 49.2022 37.7447 49.3256C33.3586 49.3256 32.1244 49.8958 32.1244 47.4544ZM29.402 47.9654C29.402 49.9748 31.0236 51.7818 33.3364 52.0336C34.9703 52.2113 42.9157 52.0632 45.5814 52.0459C47.0303 52.0385 47.8547 52.3817 48.9604 52.7544C49.9329 53.0803 51.0881 53.4012 52.068 53.732L55.1113 54.7762C53.7291 54.7762 51.8853 54.5219 51.2238 55.3242C50.6635 56.008 50.7549 57.4793 52.7171 57.5114C55.6445 57.5607 58.6434 57.5015 61.5806 57.5015L62.9678 61.7499C62.3878 61.6092 62.0595 61.192 61.6078 60.8785C61.1462 60.5551 60.6995 60.3798 60.1639 60.1083C52.5049 56.2623 42.6812 62.0437 42.6812 71.1231H37.2337C37.2189 70.4985 37.0116 69.0124 36.8635 68.4274C36.4661 66.85 35.9256 65.5169 34.9753 64.1864C34.7359 63.8531 34.5656 63.6383 34.2965 63.3322C34.0201 63.0237 33.8473 62.7423 33.6005 62.4954L31.9097 61.1204C26.719 57.4101 22.0145 59.5158 20.7186 59.543V57.5015H46.5983C48.5927 57.5015 48.7778 54.7762 46.2577 54.7762H20.7186V52.0509C24.695 52.0509 25.4848 48.6541 25.4848 45.4104C26.482 45.4919 28.4196 46.3337 29.5723 46.6028C29.5723 47.4198 29.402 47.3902 29.402 47.9654ZM21.3999 49.3256H20.7186V43.8775C21.2962 44.0132 22.4563 44.3317 22.9326 44.5588C22.8635 45.3734 22.6611 46.43 22.5994 47.2915C22.5328 48.1999 22.244 49.3256 21.3999 49.3256ZM51.5348 31.6185L53.2379 45.5808L40.788 41.6854C39.9315 41.4237 39.2552 41.1398 38.3543 40.8855C37.3843 40.6091 36.7746 40.4042 35.8935 40.1079C35.1184 39.8487 34.0373 39.6266 33.3166 39.281L34.0077 33.4996C34.257 31.031 35.4072 31.6185 38.5962 31.6185C42.9083 31.6185 47.2228 31.6185 51.5348 31.6185ZM5.73629 38.9403V34.3414C11.828 34.3414 10.0261 33.6082 14.7158 38.3009C17.1347 40.7201 18.1738 41.0806 18.1714 43.5318C18.164 49.3799 18.164 55.2279 18.164 61.076C17.4827 61.2586 16.6583 62.1572 16.1622 62.6509C15.4933 63.3125 15.054 63.9321 14.5184 64.7517C13.7112 65.9786 12.7165 68.5088 12.7165 70.4417C12.06 70.2887 11.7613 70.0665 11.1837 69.9307L11.1911 47.2767C11.201 42.6753 5.73629 40.2561 5.73629 38.9403ZM17.3124 37.0667L26.018 39.7697C28.9108 40.656 31.7641 41.6508 34.6569 42.537L65.1621 52.2163C65.9914 52.7125 66.4505 54.8132 66.9244 56.2425L71.1525 69.2272C71.3204 69.9011 70.8588 70.4417 70.4911 71.1798C70.1628 71.834 69.9431 72.6067 69.4124 72.9967C69.3384 72.113 68.4424 69.8295 68.1141 68.8446L64.0292 56.4128C63.1455 53.7394 62.8395 54.4405 59.0902 53.179L40.3191 47.2643C37.5842 46.3954 34.6692 45.4475 31.9344 44.5785L21.4295 41.2929C20.1929 40.9695 20.5557 41.0583 19.9658 40.0314C19.2525 38.7848 18.0282 38.1356 17.3124 37.0667ZM30.7644 38.4293C29.513 38.3256 27.8001 37.3431 26.5067 37.237L27.2867 29.5005C27.9605 26.832 31.2581 27.5306 33.8275 27.5306C39.5613 27.5306 45.2926 27.5306 51.0239 27.5306L51.1942 28.8932H35.3603C33.4919 28.8932 31.9344 30.4731 31.5469 32.0604L30.7644 38.4293ZM31.7838 21.7418C31.7838 20.5149 34.5088 20.078 34.5088 22.0824V24.8053H31.7838V21.7418ZM29.0613 24.8053L27.5779 25.3681C26.8991 25.7063 26.8819 25.7038 26.3759 26.2074C25.549 27.027 25.0998 27.5059 24.7419 28.829C24.1495 31.0063 24.2951 34.0155 23.7817 36.215C23.0289 36.1533 16.4016 33.976 14.9083 33.5119L13.1016 32.9367C12.2402 32.4208 11.6033 31.6185 9.65095 31.6185H4.54412C3.71972 31.6185 3.18164 32.1567 3.18164 32.9787V65.3343C3.18164 69.7604 7.62698 71.2465 10.6259 72.5326C11.2652 72.8066 11.6576 72.9473 12.3142 73.2287C13.8692 73.8928 12.1217 74.8333 15.8981 79.3483C16.1227 79.6149 16.1968 79.7828 16.4387 80.0025C20.1114 83.3425 24.9862 84.3348 29.6735 82.4637C33.0797 81.101 36.012 77.6302 36.8931 73.8484H43.0218C43.6586 76.5811 44.9964 78.5929 46.9784 80.4493C52.2333 85.3692 61.7485 83.9275 65.4904 77.4179C65.7668 76.939 66.1371 76.2009 66.3271 75.6998L66.9738 73.7916C66.9837 73.7669 67.0059 73.7126 67.0281 73.678C67.0849 74.347 68.1117 77.8869 69.0348 78.6522C69.4889 79.0274 69.9949 79.2965 70.7749 79.2965H88.9931C89.9483 79.2965 90.3531 78.709 90.3531 77.9338C90.3531 77.0402 87.1592 73.9199 86.3101 72.9547L76.4371 62.2239C75.9212 61.7178 75.7707 61.545 75.3066 60.9723C74.7217 60.2515 72.8186 59.5603 72.8186 61.9276C72.8186 62.2856 73.9392 63.4433 74.1786 63.8013C73.8257 64.4703 73.3764 65.7761 72.8186 66.1834C72.7396 65.2355 68.8275 53.5715 68.4572 52.4952C67.307 49.1478 64.2513 49.1824 59.685 47.647L56.1332 46.6028C56.1184 46.0202 55.9086 44.8402 55.8419 44.3366L53.7489 27.5306C55.0867 27.5306 57.6635 27.7972 57.6635 26.1679C57.6635 25.4989 57.1082 24.8053 56.3035 24.8053H37.2337C37.2337 23.0032 37.4164 20.7963 36.2588 19.4806C34.2151 17.1601 30.878 17.6835 29.5772 20.0434C28.8836 21.3048 29.0613 22.9045 29.0613 24.8053Z" fill="#ED9818"/>
<path fill-rule="evenodd" clip-rule="evenodd" d="M18.1639 70.9529C18.1639 73.1845 18.9094 74.7101 20.2447 76.0234C23.8755 79.5929 30.0116 77.8921 31.3913 73.1129C31.7517 71.8663 32.001 69.3903 30.9643 68.6942C30.3966 68.3115 29.6019 68.4745 29.1822 69.0299C28.3529 70.1235 30.0116 71.7182 27.8963 74.046C26.2549 75.853 20.8889 76.1591 20.8889 70.7826C20.8889 68.7682 22.9252 67.0353 24.6332 67.0353C25.4379 67.0353 25.9069 67.2747 26.4672 67.1785C28.0715 66.9045 28.2739 63.9446 24.5617 64.3989C20.8938 64.8457 18.1639 67.4352 18.1639 70.9529Z" fill="#ED9818"/>
<path fill-rule="evenodd" clip-rule="evenodd" d="M54.7708 77.9339C62.3508 77.9339 62.8025 68.5681 60.5588 68.5681C59.8875 68.5681 59.379 68.4546 59.0335 69.2667C58.8755 69.6321 59.0261 70.5825 59.0261 71.4638C59.0261 73.2782 57.2761 75.2086 55.452 75.2086H54.6005C51.4288 75.2086 49.4764 70.9676 51.9965 68.3484C54.4499 65.8009 56.3529 68.0547 57.3575 66.7291C58.7743 64.8579 55.4619 63.4854 52.1001 65.048C50.4094 65.833 48.9753 67.3931 48.4619 69.2421C47.5462 72.5573 49.1604 75.7467 51.7003 77.0872C52.4605 77.4896 53.6107 77.9339 54.7708 77.9339Z" fill="#ED9818"/>
<path d="M121.213 17.7105C151.705 34.2033 158.544 64.0754 130.485 95.4979" stroke="#ED9818" stroke-width="4"/>
<path d="M111.267 23.4237C136.854 37.2637 142.593 62.3309 119.047 88.6991" stroke="#ED9818" stroke-width="4"/>
<path d="M100.472 34.0895C120.009 44.657 124.391 63.7971 106.413 83.9306" stroke="#ED9818" stroke-width="4"/>
</svg>
