<svg width="249" height="149" viewBox="0 0 249 149" fill="none" xmlns="http://www.w3.org/2000/svg">
<g clip-path="url(#clip0_331_288)">
<path fill-rule="evenodd" clip-rule="evenodd" d="M4.35368 58.8334C9.49225 61.5502 22.8865 69.9534 28.2108 73.1567L40.1827 80.3854C46.7853 84.7246 53.1252 88.1614 61.5378 84.0494L97.5045 62.4174C99.5324 61.2142 101.41 59.9502 103.524 58.8334V103.678C103.527 106.654 103.348 108.005 101.804 109.544C100.477 110.869 98.7155 111.486 96.1526 111.486H11.7251C6.4232 111.486 4.34087 108.907 4.35368 103.902V58.8334ZM10.6071 52.587H29.5916C30.6135 52.587 30.0177 53.6622 30.841 56.9198C31.722 60.4142 33.2629 63.3262 35.5535 66.043C36.1205 66.715 36.2679 66.9582 36.9054 67.5918C46.1221 76.7438 60.8843 76.7758 69.9665 67.7038C71.6067 66.0654 73.6634 63.3198 74.6181 61.195C75.4286 59.3902 76.3256 56.8462 76.6331 54.731C76.7869 53.6622 76.3961 52.587 77.3924 52.587H97.2707C99.6542 52.587 101.455 53.8446 102.406 55.2654C95.9252 59.5982 85.7666 64.9966 79.0454 69.4126C77.1137 70.6798 75.1627 71.7422 73.1893 72.9326L61.493 79.9886C56.3768 83.099 51.4561 82.9742 46.3528 80.0206C45.8883 79.7519 45.4558 79.4254 44.9945 79.147C44.453 78.8206 43.9981 78.5583 43.4535 78.2318C42.4989 77.6623 41.4801 77.0447 40.5254 76.4719C36.5818 74.1166 32.8272 71.8094 28.8259 69.419L8.38701 57.0382C7.44515 56.4782 6.38156 55.8766 5.47174 55.2654C6.40078 53.8766 8.28769 52.587 10.6071 52.587ZM33.6121 51.2494C33.6121 45.0734 36.2903 40.2126 39.4747 37.0222C41.1566 35.339 43.1139 34.043 45.302 33.0286C47.4452 32.0302 51.1069 31.1662 53.4936 31.1662C54.2657 31.1662 54.7142 31.3358 55.7201 31.3998C59.8783 31.6558 64.6581 34.1774 67.5093 37.0254C73.2854 42.795 75.0281 51.3102 71.6483 59.1246C69.7518 63.5118 66.3977 66.7726 62.2042 68.875C55.4734 72.251 48.1724 71.3102 41.9639 67.2238L39.3017 64.9774C36.3287 61.771 33.6121 57.2942 33.6121 51.2494ZM30.2643 49.019H10.6071C5.28593 49.019 0.781677 53.5214 0.781677 58.1646V105.909C0.781677 108.843 2.68141 111.214 4.29602 112.661C6.14449 114.315 8.7394 115.057 12.1705 115.057H95.7073C99.1704 115.057 101.711 114.325 103.579 112.661C105.196 111.217 107.096 108.837 107.096 105.909V58.1646C107.096 53.531 102.601 49.019 97.2707 49.019H76.7196C76.7196 43.0094 73.3078 37.9342 69.4058 34.0142C67.6663 32.2638 65.1547 30.5646 62.6847 29.5726C60.0834 28.5294 56.38 27.5854 53.4936 27.5854C48.0219 27.5854 41.384 30.1646 37.5781 34.0142C33.6794 37.9534 30.2643 42.9838 30.2643 49.019Z" fill="#ED9818"/>
<path fill-rule="evenodd" clip-rule="evenodd" d="M53.2693 54.1488C55.8258 54.1488 57.9145 54.5232 59.6989 56.4304C60.8747 57.688 61.7973 59.3328 61.9799 61.512H45.8979C46.2278 57.5376 49.5211 54.1488 53.2693 54.1488ZM42.3259 62.1808C42.3259 63.3168 42.1433 65.0832 44.1103 65.0832H63.9886C66.7757 65.0832 66.3624 55.7584 59.3754 51.8448C52.4588 47.9728 42.3259 52.7696 42.3259 62.1808Z" fill="#ED9818"/>
<path fill-rule="evenodd" clip-rule="evenodd" d="M81.1887 97.2076H93.2502V103.233H81.1887V97.2076ZM77.6135 95.646V104.795C77.6135 106.164 78.6771 106.801 80.0706 106.801H94.365C95.7586 106.801 96.8222 106.164 96.8222 104.795V95.646C96.8222 94.5452 95.9156 93.6396 94.8135 93.6396H79.6253C78.5201 93.6396 77.6135 94.5452 77.6135 95.646Z" fill="#ED9818"/>
<path fill-rule="evenodd" clip-rule="evenodd" d="M9.71328 106.801H41.8774C45.2155 106.801 44.9048 103.233 42.7712 103.233H8.59843C6.45523 103.233 5.64472 106.801 9.71328 106.801Z" fill="#ED9818"/>
<path fill-rule="evenodd" clip-rule="evenodd" d="M53.9389 46.3407C49.0566 46.3407 48.5729 38.7567 54.1632 38.7567C58.9525 38.7567 58.9429 46.3407 53.9389 46.3407ZM46.5674 41.8799C46.5674 52.5615 61.3104 52.5263 61.3104 41.8799C61.3104 38.8719 58.0619 35.1855 54.3842 35.1855C51.8341 35.1855 50.4118 35.6239 48.7074 37.3231L48.0699 38.0239C47.3427 38.9007 46.5674 40.6543 46.5674 41.8799Z" fill="#ED9818"/>
<path fill-rule="evenodd" clip-rule="evenodd" d="M49.4731 104.795C49.4731 107.265 51.9719 106.801 54.6084 106.801C58.0843 106.801 57.6743 103.233 55.5022 103.233C51.9078 103.233 49.4731 102.629 49.4731 104.795Z" fill="#ED9818"/>
</g>
<path d="M159.821 24.2285C201.535 46.7909 210.89 87.6566 172.505 130.643" stroke="#ED9818" stroke-width="4"/>
<path d="M146.214 32.0448C181.219 50.978 189.069 85.2704 156.858 121.343" stroke="#ED9818" stroke-width="4"/>
<path d="M131.447 46.6346C158.174 61.0911 164.169 87.2752 139.574 114.818" stroke="#ED9818" stroke-width="4"/>
<defs>
<clipPath id="clip0_331_288">
<rect width="107" height="88" fill="white" transform="translate(0 27)"/>
</clipPath>
</defs>
</svg>
