<svg width="233" height="149" viewBox="0 0 233 149" fill="none" xmlns="http://www.w3.org/2000/svg">
<g clip-path="url(#clip0_331_289)">
<path fill-rule="evenodd" clip-rule="evenodd" d="M31.4667 48.7558C31.4667 50.677 28.6018 50.677 28.6018 48.7558C28.6018 46.8347 31.4667 46.8347 31.4667 48.7558Z" fill="#ED9818"/>
<path fill-rule="evenodd" clip-rule="evenodd" d="M37.1941 95.8368V100.312H39.8788C37.8563 97.2895 38.9576 99.2624 37.3855 96.1814L37.1941 95.8368ZM55.4531 81.6949H49.9035C49.4801 83.5102 47.2188 94.1769 47.2188 96.0147H44.354C44.354 90.4224 44.372 85.8278 40.5545 81.1972C38.5139 78.7197 34.2189 75.3188 31.1085 75.249L30.0635 86.0215C29.9306 87.276 29.9284 88.4832 29.6761 89.571L22.8743 81.3368C22.1198 81.8413 16.8248 89.0643 16.0703 89.571L14.6379 75.4292C13.7978 75.8323 12.9554 76.035 12.1401 76.5102C11.4104 76.9337 10.6559 77.3931 9.95545 77.9066C8.5996 78.9021 7.28429 80.1994 6.27303 81.5643C4.15592 84.4224 2.82484 87.8773 2.82484 92.7917V113.199H8.5523V85.9899H11.4172V113.199H34.3292V85.9899H37.1941C37.1941 89.3616 37.0837 88.0688 38.7549 91.9494L40.4734 95.7782C41.3923 97.616 42.3833 99.0304 44.5049 99.803C48.8337 101.375 53.2346 98.8052 53.9486 93.794C54.2436 91.7174 54.5206 89.767 54.7368 87.7805C54.9486 85.839 55.4531 83.7197 55.4531 81.6949ZM71.5634 75.7873V50.3662C71.5634 48.2851 68.7008 48.2851 68.7008 50.3662V75.7873C68.7008 77.8684 71.5634 77.8684 71.5634 75.7873ZM18.2189 82.2309C18.8676 81.4855 20.7167 79.3548 20.9036 78.6499L18.2325 75.0576C17.7843 74.5958 18.3428 74.7828 17.5027 74.713C17.5027 76.3211 18.2189 80.4629 18.2189 82.2309ZM28.2437 74.713C27.7392 74.7535 27.854 74.5756 27.2144 75.4742L24.8428 78.6499C25.041 79.3909 26.9486 81.5665 27.5275 82.2309C27.5275 80.4629 28.2437 76.3211 28.2437 74.713ZM57.2436 71.6702C57.2436 69.767 53.9688 70.2378 52.7684 70.2378C50.595 70.2378 49.2729 71.3413 48.8134 73.0936C48.3495 74.8706 49.6851 76.999 49.7256 78.8301H56.3494C57.1715 78.8301 58.5319 76.803 58.676 75.0711C57.7931 75.3053 57.5048 75.9652 56.1693 75.9652H51.5161V73.1003C53.6468 73.1003 57.2436 73.6386 57.2436 71.6702ZM65.8359 72.7422V53.409C62.8922 55.3819 63.3427 55.3234 59.5679 56.9878C57.9328 57.7085 53.8157 58.7806 51.5161 58.7806V67.3729C54.4666 67.3729 57.0724 66.9044 58.7999 68.5013C60.2684 69.8594 59.1467 68.8774 61.185 69.8774C63.6467 71.0846 63.8021 71.3819 65.8359 72.7422ZM47.577 67.3729H48.6513V58.7806C46.9643 58.7806 45.595 58.7918 44.3044 59.9833C41.5522 62.5283 43.2099 67.3729 47.577 67.3729ZM77.2931 63.0756C77.2931 61.3211 75.8854 59.4788 74.4282 59.1387V67.0148C75.8854 66.6747 77.2931 64.8324 77.2931 63.0756ZM20.0095 57.8864L20.0072 70.954C19.9915 73.0531 19.8248 72.3188 21.6198 74.713C21.9442 75.1454 22.5478 75.7783 22.6942 76.3233H23.0523C23.2054 75.7512 23.9689 74.9224 24.3563 74.4044C26.1446 72.0238 25.7369 73.2085 25.7369 68.8053H22.8743V65.9405H29.6761C34.3 65.9405 34.3292 62.0103 34.3292 59.1387C34.8946 59.0081 35.5274 58.6522 36.068 58.3684C39.059 56.8031 35.0432 54.7919 34.3968 51.195C34.1964 50.0824 34.3225 48.3369 34.3315 47.141C34.345 45.6432 34.2009 44.4586 32.7189 44.4586H23.4104C20.2887 44.4586 20.0095 46.5216 20.0095 48.7558C18.3203 48.7558 16.6716 48.5509 15.4825 49.6004C13.4081 51.427 14.2415 53.7153 16.5568 55.4315C17.2054 55.9135 19.4599 57.7378 20.0095 57.8864ZM66.0138 48.7558H37.1941C37.1941 53.6883 40.059 53.0959 40.059 56.99C40.059 58.9585 38.64 60.722 37.1941 61.1071C37.1941 63.7265 36.7009 65.0891 35.363 66.436C32.8946 68.9224 31.8067 68.8053 28.6018 68.8053V71.6702C30.8585 72.1949 32.0815 72.0193 34.7504 73.2175C39.8788 75.5238 42.113 77.9404 44.8585 82.4427C45.1986 83.0035 45.2301 83.0913 45.5049 83.7647L46.1445 85.0958C47.2369 80.4111 47.3247 81.0418 46.3945 77.3256C45.7571 74.7738 45.2076 72.704 46.8607 70.2378C43.4463 70.2378 40.059 67.0058 40.059 63.6139C40.059 60.3121 41.2099 58.0554 43.9914 56.6274C47.8945 54.6207 54.2391 58.1229 63.6129 51.3662C64.0882 51.0216 65.6107 49.8324 65.8562 49.3121C65.899 49.2221 66.0093 48.7671 66.0138 48.7558ZM74.4282 49.65V56.0959C77.1579 56.1567 80.1579 59.6387 80.1579 62.5396V63.6139C80.1579 66.5148 77.1579 69.9968 74.4282 70.0576V76.3233C74.4282 80.2287 68.5408 81.9629 66.3742 78.1116C66.0499 77.5328 66.0409 76.9967 65.64 76.5215L61.5386 73.4585C61.5386 75.1634 61.6602 76.1251 61.185 77.4021C60.14 80.2039 58.9711 79.9787 58.6242 81.2828C57.8765 84.0868 57.5319 94.4449 55.8157 97.8097C55.0657 99.2827 54.4936 99.607 54.0206 100.312L83.203 100.314C84.7007 100.325 85.8854 100.184 85.8854 98.6994V48.7558H74.2503C74.3426 49.1567 74.4282 49.168 74.4282 49.65ZM37.1941 45.891H85.8854V38.909C85.8854 38.0261 85.1579 37.2987 84.275 37.2987H42.9216C42.9216 39.3888 42.354 40.8189 41.0905 42.0914C40.0432 43.1477 38.7076 44.2423 37.0162 44.2806C37.0725 44.9698 37.1941 44.9856 37.1941 45.891ZM40.059 37.4788C40.059 35.5847 39.1693 33.3482 37.8608 32.1568C36.327 30.7627 34.5274 30.1388 32.3608 30.1388C24.1806 30.1388 16.8653 29.2018 11.1018 35.0171C4.67168 41.5059 3.97349 50.9112 9.13789 57.8369C10.5185 59.6905 12.6424 61.5644 14.6964 62.6612C15.5455 63.1139 16.3631 63.3797 17.1446 63.7918V59.4968C14.8991 57.9923 11.4172 55.7648 11.4172 52.695C11.4172 50.6883 11.5996 49.1612 13.2888 47.5847C14.2302 46.7085 15.5906 45.891 17.3248 45.891C17.4689 44.1522 19.4599 42.3865 20.9802 41.8505C24.9104 40.4608 35.9599 43.3459 38.854 40.2131C39.4689 39.5464 40.059 38.1478 40.059 37.4788ZM42.5635 34.4338C55.0949 34.4338 67.6264 34.4338 80.1579 34.4338C82.0228 34.4338 84.6849 34.096 86.1264 34.7311C87.4102 35.2964 88.7502 36.6388 88.7502 38.373V99.2376C88.7502 101.206 86.7795 103.175 84.8111 103.175H37.1941V116.064H-0.0400085V90.8233C-0.0400085 87.0372 1.4217 83.6994 3.25728 80.6949C3.55682 80.2017 3.88565 79.7602 4.23024 79.3391C7.13789 75.7828 12.6942 71.8481 17.1446 71.8481C17.1446 63.6837 18.5117 69.6184 9.55005 62.6162C7.45772 60.981 5.37889 57.8166 4.32935 55.3054C1.6244 48.8279 2.55007 41.5284 6.50952 35.7942C9.8924 30.8978 16.0861 27.2739 22.1581 27.2739H33.4351C35.7842 27.2739 37.8968 28.4203 39.2707 29.4946C40.336 30.3302 41.3608 31.6658 41.9711 32.8798C42.2481 33.4338 42.3202 33.9271 42.5635 34.4338Z" fill="#ED9818"/>
<path fill-rule="evenodd" clip-rule="evenodd" d="M83.0205 85.9899H61.5386V83.125H83.0205V85.9899Z" fill="#ED9818"/>
<path fill-rule="evenodd" clip-rule="evenodd" d="M83.0205 97.4469H61.5386V94.582H83.0205V97.4469Z" fill="#ED9818"/>
<path fill-rule="evenodd" clip-rule="evenodd" d="M83.0205 91.7176H70.1332V88.855H83.0205V91.7176Z" fill="#ED9818"/>
<path fill-rule="evenodd" clip-rule="evenodd" d="M67.2683 91.7176H61.5386V88.855H67.2683V91.7176Z" fill="#ED9818"/>
<path fill-rule="evenodd" clip-rule="evenodd" d="M83.0205 43.0284H80.1579V40.1636H83.0205V43.0284Z" fill="#ED9818"/>
<path fill-rule="evenodd" clip-rule="evenodd" d="M77.2931 43.0284H74.4282V40.1636H77.2931V43.0284Z" fill="#ED9818"/>
<path fill-rule="evenodd" clip-rule="evenodd" d="M71.5634 43.0284H68.7008V40.1636H71.5634V43.0284Z" fill="#ED9818"/>
</g>
<path d="M143.821 24.2285C185.535 46.7909 194.89 87.6566 156.505 130.643" stroke="#ED9818" stroke-width="4"/>
<path d="M130.214 32.0448C165.219 50.978 173.069 85.2704 140.858 121.343" stroke="#ED9818" stroke-width="4"/>
<path d="M115.447 46.6346C142.174 61.0911 148.169 87.2752 123.574 114.818" stroke="#ED9818" stroke-width="4"/>
<defs>
<clipPath id="clip0_331_289">
<rect width="89" height="89" fill="white" transform="matrix(-1 0 0 1 89 27)"/>
</clipPath>
</defs>
</svg>
