<svg width="233" height="149" viewBox="0 0 233 149" fill="none" xmlns="http://www.w3.org/2000/svg">
<g clip-path="url(#clip0_331_290)">
<path fill-rule="evenodd" clip-rule="evenodd" d="M28.988 59.8598V78.1825C28.988 80.1774 30.9829 82.1744 32.9778 82.1744L34.7937 81.9911C34.7937 85.0856 34.2333 87.9779 36.2451 87.9779C37.1214 87.9779 37.6965 87.4049 37.6965 86.5265V63.3061C37.6965 62.4298 37.1214 61.8547 36.2451 61.8547C34.4313 61.8547 34.7915 63.719 34.7937 65.4843C34.7937 66.9947 34.9179 77.4326 34.722 78.113C34.2207 79.8635 31.8908 79.4443 31.8908 77.639V60.7678C31.8908 57.1445 34.503 53.1484 38.0588 53.1484H51.8461C55.4167 53.1484 58.014 57.1319 58.014 60.7678V77.639C58.014 79.4443 55.6821 79.8635 55.1807 78.113C54.9848 77.4326 55.1112 66.9947 55.1112 65.4843C55.1112 63.719 55.4714 61.8547 53.6598 61.8547C52.7814 61.8547 52.2084 62.4298 52.2084 63.3061V86.5265C52.2084 88.1717 55.1407 89.1597 55.1175 85.8103C55.1091 84.5358 55.1112 83.2656 55.1112 81.9911C58.5301 82.7895 60.9168 80.5882 60.9168 78.1825V59.6787C60.9168 57.4668 59.4359 54.7515 58.4058 53.4812C57.4242 52.2742 54.9953 50.2456 52.9331 50.2456H36.9697C33.3359 50.2456 28.988 55.4403 28.988 59.8598Z" fill="#ED9818"/>
<path fill-rule="evenodd" clip-rule="evenodd" d="M-0.0379639 115.552C-0.0379639 116.431 0.535014 117.004 1.41344 117.004H85.5886C87.535 117.004 87.535 114.101 85.5886 114.101H1.41344C0.535014 114.101 -0.0379639 114.676 -0.0379639 115.552Z" fill="#ED9818"/>
<path fill-rule="evenodd" clip-rule="evenodd" d="M2.86487 62.7627V81.0853C2.86487 83.0802 4.85976 85.0751 6.85465 85.0751L8.67049 84.894C8.67049 87.9885 8.11015 90.8807 10.1219 90.8807C10.9982 90.8807 11.5733 90.3078 11.5733 89.4293V66.209C11.5733 65.3327 10.9982 64.7576 10.1219 64.7576C8.30816 64.7576 8.66838 66.6219 8.67049 68.3871C8.67049 69.8975 8.79477 80.3354 8.59886 81.0158C8.09751 82.7642 5.76768 82.3472 5.76768 80.5419V63.6706C5.76768 61.3281 6.63346 59.7293 7.68252 58.3284C8.84954 56.7675 10.1598 56.0344 12.8414 56.0491L23.7322 56.0555C27.4271 56.0892 26.2116 53.1484 24.6338 53.1484H10.8465C7.21276 53.1484 2.86487 58.3432 2.86487 62.7627Z" fill="#ED9818"/>
<path fill-rule="evenodd" clip-rule="evenodd" d="M63.8175 54.5998C63.8175 56.6053 66.615 56.0512 69.6231 56.0512C71.9108 56.0512 78.3526 55.6636 80.1537 56.5863C80.9542 56.9971 81.6241 57.5027 82.1718 58.1957C83.1682 59.4575 84.1372 61.4608 84.1372 63.6706V80.5419C84.1372 82.3472 81.8052 82.7642 81.3039 81.0158C81.108 80.3354 81.2344 69.8975 81.2344 68.3871C81.2344 66.6219 81.5946 64.7576 79.7829 64.7576C78.9045 64.7576 78.3315 65.3327 78.3315 66.209V89.4293C78.3315 91.0745 81.2638 92.0625 81.2407 88.711C81.2322 87.4387 81.2344 86.1684 81.2344 84.894C84.6533 85.6902 87.04 83.491 87.04 81.0853V62.5815C87.04 60.3675 85.5591 57.6543 84.529 56.3841C83.5473 55.177 81.1185 53.1484 79.0562 53.1484H65.2689C64.3926 53.1484 63.8175 53.7214 63.8175 54.5998Z" fill="#ED9818"/>
<path fill-rule="evenodd" clip-rule="evenodd" d="M17.3768 83.6241V109.747C17.3768 111.696 20.2796 111.696 20.2796 109.747V85.0755H23.1824V109.747C23.1824 111.696 26.0853 111.696 26.0853 109.747V83.6241C26.0853 82.7478 25.5123 82.1748 24.6339 82.1748H18.8282C17.9519 82.1748 17.3768 82.7478 17.3768 83.6241Z" fill="#ED9818"/>
<path fill-rule="evenodd" clip-rule="evenodd" d="M63.8175 86.5266V109.747C63.8175 111.696 66.7203 111.696 66.7203 109.747V87.978H69.6231V109.747C69.6231 111.696 72.5259 111.696 72.5259 109.747V86.5266C72.5259 85.6503 71.9529 85.0752 71.0745 85.0752H65.2689C64.3926 85.0752 63.8175 85.6503 63.8175 86.5266Z" fill="#ED9818"/>
<path fill-rule="evenodd" clip-rule="evenodd" d="M13.0225 41.8997C12.8161 40.8275 13.5576 38.7673 14.6066 37.6782C15.6473 36.5954 16.7069 35.9551 18.5164 35.7718C21.3686 35.4832 24.2546 37.8825 24.5958 41.2256C24.6569 41.8302 24.4041 43.1447 24.2061 43.6481C23.1444 46.3508 19.795 48.1245 16.7174 46.9133C15.4935 46.433 14.2991 45.2744 13.6861 44.1411C13.2521 43.3406 13.3301 43.2142 13.1784 42.4706C13.052 41.847 13.0941 42.2683 13.0225 41.8997ZM10.1218 40.8127C10.1218 42.7002 10.0923 43.6376 10.9623 45.4134C11.2046 45.9084 11.4173 46.2539 11.7249 46.6457C15.6494 51.5961 22.2344 51.5097 26.0114 46.5425C27.3512 44.7814 27.5366 42.9951 27.5366 40.8127C27.5366 36.9262 23.4394 32.8311 19.5549 32.8311H18.1035C14.2169 32.8311 10.1218 36.9262 10.1218 40.8127Z" fill="#ED9818"/>
<path fill-rule="evenodd" clip-rule="evenodd" d="M39.1457 38.999C39.0678 38.5924 39.4406 36.8672 39.5754 36.5238C41.6904 31.1374 50.0533 31.7693 50.719 38.3228C50.7801 38.9274 50.5252 40.2439 50.3293 40.7453C50.066 41.4152 49.6299 42.0219 49.1749 42.4958C47.5908 44.1431 45.1999 44.9373 42.8406 44.0125C40.8541 43.231 39.7124 41.5837 39.3016 39.5677C39.1752 38.9442 39.2173 39.3655 39.1457 38.999ZM36.245 37.9099C36.245 39.7974 36.2155 40.7348 37.0855 42.5106C37.3278 43.0056 37.5405 43.3532 37.8481 43.7429C41.1975 47.9686 46.6787 48.4173 50.0597 45.7378C50.3925 45.4745 50.9887 45.0384 51.2499 44.7519C51.5132 44.4612 51.4205 44.5181 51.6417 44.2358C56.8132 37.6508 51.2541 29.9282 45.6781 29.9282H44.2267C40.3401 29.9282 36.245 34.0233 36.245 37.9099Z" fill="#ED9818"/>
<path fill-rule="evenodd" clip-rule="evenodd" d="M65.2689 41.8997C65.0624 40.8275 65.8039 38.7673 66.853 37.6782C68.4371 36.0288 70.828 35.2346 73.1852 36.1615C78.5717 38.2765 77.9418 46.6394 71.3863 47.303C68.7447 47.5726 66.0651 45.6072 65.4247 42.4706C65.2984 41.847 65.3405 42.2683 65.2689 41.8997ZM62.3682 40.8127C62.3682 44.8194 63.6531 47.4799 67.2048 49.399C70.3899 51.1221 75.2517 50.3385 77.7648 47.1387C82.9343 40.5536 77.3772 32.8311 71.8012 32.8311H70.3498C66.4633 32.8311 62.3682 36.9262 62.3682 40.8127Z" fill="#ED9818"/>
<path fill-rule="evenodd" clip-rule="evenodd" d="M28.988 92.3323V109.747C28.988 111.696 31.8908 111.696 31.8908 109.747V93.7837H34.7937V109.747C34.7937 111.696 37.6965 111.696 37.6965 109.747V92.3323C37.6965 91.4559 37.1214 90.8809 36.2451 90.8809H30.4394C29.561 90.8809 28.988 91.4559 28.988 92.3323Z" fill="#ED9818"/>
<path fill-rule="evenodd" clip-rule="evenodd" d="M52.2084 92.3323V109.747C52.2084 111.696 55.1112 111.696 55.1112 109.747V93.7837H58.014V109.747C58.014 111.696 60.9168 111.696 60.9168 109.747V92.3323C60.9168 91.4559 60.3417 90.8809 59.4654 90.8809H53.6598C52.7814 90.8809 52.2084 91.4559 52.2084 92.3323Z" fill="#ED9818"/>
<path fill-rule="evenodd" clip-rule="evenodd" d="M5.7677 95.2351V109.747C5.7677 111.696 8.67051 111.696 8.67051 109.747V96.6865H11.5733V109.747C11.5733 111.696 14.474 111.696 14.474 109.747V95.2351C14.474 94.3567 13.901 93.7837 13.0226 93.7837H7.2191C6.34068 93.7837 5.7677 94.3567 5.7677 95.2351Z" fill="#ED9818"/>
<path fill-rule="evenodd" clip-rule="evenodd" d="M75.4287 95.2351V109.747C75.4287 111.696 78.3315 111.696 78.3315 109.747V96.6865H81.2343V109.747C81.2343 111.696 84.1371 111.696 84.1371 109.747V95.2351C84.1371 94.3567 83.562 93.7837 82.6857 93.7837H76.8801C76.0017 93.7837 75.4287 94.3567 75.4287 95.2351Z" fill="#ED9818"/>
<path fill-rule="evenodd" clip-rule="evenodd" d="M40.5972 98.1379V109.747C40.5972 111.696 43.5 111.696 43.5 109.747V99.5893H46.4028V109.747C46.4028 111.696 49.3056 111.696 49.3056 109.747V98.1379C49.3056 97.2595 48.7326 96.6865 47.8542 96.6865H42.0486C41.1723 96.6865 40.5972 97.2595 40.5972 98.1379Z" fill="#ED9818"/>
</g>
<path d="M143.821 24.2285C185.535 46.7909 194.89 87.6566 156.505 130.643" stroke="#ED9818" stroke-width="4"/>
<path d="M130.214 32.0448C165.219 50.978 173.069 85.2704 140.858 121.343" stroke="#ED9818" stroke-width="4"/>
<path d="M115.447 46.6346C142.174 61.0911 148.169 87.2752 123.574 114.818" stroke="#ED9818" stroke-width="4"/>
<defs>
<clipPath id="clip0_331_290">
<rect width="87" height="87" fill="white" transform="translate(0 30)"/>
</clipPath>
</defs>
</svg>
