<svg width="255" height="149" viewBox="0 0 255 149" fill="none" xmlns="http://www.w3.org/2000/svg">
<path fill-rule="evenodd" clip-rule="evenodd" d="M104.041 90.0736C104.777 90.5667 105.189 91.0867 105.769 91.8398L110.895 97.4322C112.036 98.9113 117.226 103.771 117.55 104.983L98.9081 104.99C95.9501 105.031 96.3249 105.743 100.546 97.2971L104.041 90.0736ZM62.1164 97.9962C62.1164 84.3326 77.0073 80.7124 84.1893 87.7975C89.548 93.0859 89.727 101.214 84.186 106.79C78 113.014 67.1678 110.886 63.4299 103.204C62.7579 101.826 62.1164 99.9346 62.1164 97.9962ZM33.6987 84.2516C48.6166 84.2516 52.1756 103.649 39.2904 109.411C32.3582 112.511 23.5384 108.82 21.3436 100.336C19.3143 92.4781 25.6725 84.2516 33.6987 84.2516ZM7.84727 58.8595C13.3106 62.5203 11.8047 67.5217 11.8047 74.4683C11.8047 80.9893 11.8047 87.5138 11.8047 94.0349C10.7545 93.7917 9.55246 92.7584 8.96831 91.9816C8.34363 91.1543 7.90805 89.5569 7.84389 88.2128C7.69532 85.1093 7.84727 81.5803 7.84727 78.4295C7.84727 71.9051 7.84727 65.384 7.84727 58.8595ZM43.9467 64.918L50.6797 67.0354C50.8519 67.0962 50.9668 67.1299 51.1829 67.2312C51.659 67.4507 51.3888 67.3089 51.6353 67.4778C45.6351 67.4778 43.9467 68.2579 43.9467 64.918ZM40.2223 65.617C40.2223 68.3659 42.4408 70.8379 45.6047 71.1824C47.84 71.4255 58.7093 71.2229 62.3561 71.1993C64.3382 71.1891 65.466 71.6586 66.9787 72.1685C68.3091 72.6143 69.8893 73.0533 71.2299 73.5058L75.3932 74.9343C73.5023 74.9343 70.98 74.5865 70.0751 75.684C69.3086 76.6194 69.4335 78.6322 72.1179 78.6761C76.1226 78.7436 80.2252 78.6625 84.2434 78.6625L86.141 84.4745C85.3475 84.282 84.8984 83.7112 84.2805 83.2824C83.6491 82.84 83.0379 82.6002 82.3052 82.2287C71.8275 76.9673 58.3886 84.8763 58.3886 97.2971H50.9364C50.9161 96.4427 50.6325 94.4097 50.4299 93.6094C49.8862 91.4514 49.1467 89.6278 47.8467 87.8076C47.5192 87.3517 47.2862 87.0579 46.9182 86.6391C46.54 86.217 46.3036 85.832 45.966 85.4943L43.653 83.6133C36.5519 78.5376 30.1161 81.4182 28.3434 81.4554V78.6625H63.7473C66.4756 78.6625 66.7288 74.9343 63.2813 74.9343H28.3434V71.206C33.7831 71.206 34.8636 66.5592 34.8636 62.1218C36.2278 62.2332 38.8784 63.3848 40.4553 63.7529C40.4553 64.8707 40.2223 64.8302 40.2223 65.617ZM29.2753 67.4778H28.3434V60.0246C29.1335 60.2104 30.7205 60.646 31.3722 60.9567C31.2777 62.0711 31.0008 63.5165 30.9164 64.6951C30.8252 65.9378 30.4301 67.4778 29.2753 67.4778ZM70.5005 43.2542L72.8304 62.3548L55.7987 57.0258C54.627 56.6678 53.7018 56.2795 52.4693 55.9316C51.1423 55.5534 50.3083 55.2731 49.1029 54.8679C48.0426 54.5133 46.5636 54.2093 45.5777 53.7365L46.5231 45.8275C46.8642 42.4505 48.4377 43.2542 52.8003 43.2542C58.6992 43.2542 64.6016 43.2542 70.5005 43.2542ZM7.84727 53.2705V46.9791C16.1808 46.9791 13.7158 45.9761 20.1314 52.3959C23.4405 55.7054 24.8621 56.1984 24.8587 59.5518C24.8486 67.5521 24.8486 75.5523 24.8486 83.5525C23.9166 83.8024 22.7888 85.0317 22.1101 85.7071C21.1951 86.6121 20.594 87.4598 19.8613 88.5809C18.7571 90.2593 17.3964 93.7208 17.3964 96.365C16.4982 96.1557 16.0896 95.8517 15.2995 95.666L15.3096 64.6748C15.3231 58.38 7.84727 55.0705 7.84727 53.2705ZM23.6836 50.7073L35.593 54.4052C39.5504 55.6176 43.4538 56.9785 47.4112 58.1909L89.1429 71.4323C90.2774 72.1111 90.9054 74.9849 91.5538 76.9403L97.3379 94.7035C97.5675 95.6255 96.9361 96.365 96.433 97.3748C95.9839 98.2697 95.6834 99.3267 94.9574 99.8603C94.8561 98.6513 93.6304 95.5275 93.1813 94.1801L87.593 77.1733C86.3842 73.5159 85.9654 74.475 80.8364 72.7493L55.1571 64.6579C51.4158 63.4692 47.4281 62.1724 43.6868 60.9837L29.3158 56.4888C27.6242 56.0465 28.1205 56.168 27.3135 54.7632C26.3377 53.0578 24.6629 52.1696 23.6836 50.7073ZM42.0862 52.5715C40.3743 52.4296 38.0309 51.0856 36.2616 50.9404L37.3286 40.3567C38.2504 36.7061 42.7616 37.6618 46.2766 37.6618C54.1205 37.6618 61.961 37.6618 69.8016 37.6618L70.0345 39.5259H48.3735C45.8174 39.5259 43.6867 41.6872 43.1566 43.8587L42.0862 52.5715ZM43.4808 29.7426C43.4808 28.0642 47.2086 27.4665 47.2086 30.2086V33.9335H43.4808V29.7426ZM39.7564 33.9335L37.727 34.7035C36.7984 35.1662 36.7748 35.1628 36.0826 35.8517C34.9514 36.9729 34.3369 37.628 33.8473 39.4381C33.0369 42.4167 33.2361 46.5333 32.5338 49.5423C31.5039 49.4578 22.4377 46.4793 20.3948 45.8444L17.9231 45.0575C16.7447 44.3517 15.8735 43.2542 13.2026 43.2542H6.21636C5.08857 43.2542 4.35246 43.9904 4.35246 45.1149V89.3779C4.35246 95.433 10.4338 97.466 14.5364 99.2254C15.4109 99.6003 15.9478 99.7927 16.846 100.178C18.9732 101.086 16.5826 102.373 21.7488 108.549C22.0561 108.914 22.1574 109.144 22.4883 109.444C27.5127 114.014 34.1816 115.371 40.5938 112.811C45.2535 110.947 49.2649 106.199 50.4704 101.025H58.8545C59.7257 104.764 61.5558 107.516 64.2673 110.056C71.4561 116.786 84.473 114.814 89.5919 105.909C89.9701 105.253 90.4766 104.244 90.7366 103.558L91.6213 100.948C91.6348 100.914 91.6652 100.84 91.6956 100.792C91.7732 101.708 93.1779 106.55 94.4408 107.597C95.0621 108.11 95.7543 108.479 96.8213 108.479H121.744C123.051 108.479 123.605 107.675 123.605 106.614C123.605 105.392 119.235 101.123 118.074 99.8029L104.567 85.1228C103.862 84.4305 103.656 84.1942 103.021 83.4107C102.221 82.4246 99.6171 81.479 99.6171 84.7176C99.6171 85.2073 101.15 86.7911 101.478 87.2808C100.995 88.196 100.38 89.9824 99.6171 90.5396C99.5091 89.2428 94.1571 73.2863 93.6506 71.8139C92.0771 67.2346 87.8969 67.2819 81.6501 65.1814L76.7912 63.7529C76.7709 62.9559 76.4839 61.3417 76.3927 60.6527L73.5293 37.6618C75.3595 37.6618 78.8847 38.0265 78.8847 35.7977C78.8847 34.8825 78.1249 33.9335 77.0242 33.9335H50.9364C50.9364 31.4683 51.1862 28.4492 49.6026 26.6492C46.8067 23.4748 42.2416 24.1907 40.4621 27.4192C39.5132 29.1449 39.7564 31.3332 39.7564 33.9335Z" fill="#ED9818"/>
<path fill-rule="evenodd" clip-rule="evenodd" d="M24.8486 97.064C24.8486 100.117 25.8683 102.204 27.6951 104C32.6621 108.884 41.0564 106.557 42.9439 100.019C43.4369 98.3135 43.7779 94.9263 42.3597 93.974C41.5831 93.4505 40.4958 93.6734 39.9218 94.4333C38.7873 95.9293 41.0563 98.1109 38.1626 101.295C35.9171 103.767 28.5763 104.186 28.5763 96.831C28.5763 94.0753 31.3621 91.7046 33.6987 91.7046C34.7995 91.7046 35.441 92.0322 36.2075 91.9005C38.4023 91.5256 38.6792 87.4765 33.6008 88.0979C28.5831 88.7092 24.8486 92.2517 24.8486 97.064Z" fill="#ED9818"/>
<path fill-rule="evenodd" clip-rule="evenodd" d="M74.9273 106.615C85.2969 106.615 85.9148 93.8023 82.8455 93.8023C81.927 93.8023 81.2314 93.6469 80.7587 94.758C80.5426 95.2578 80.7486 96.558 80.7486 97.7636C80.7486 100.246 78.3545 102.887 75.8592 102.887H74.6943C70.3553 102.887 67.6844 97.0848 71.132 93.5017C74.4883 90.0166 77.0917 93.0999 78.466 91.2864C80.4042 88.7266 75.8727 86.8489 71.2738 88.9866C68.9608 90.0605 66.999 92.1948 66.2966 94.7242C65.0439 99.2596 67.2522 103.623 70.7268 105.456C71.7668 106.007 73.3403 106.615 74.9273 106.615Z" fill="#ED9818"/>
<path d="M165.821 24.2285C207.535 46.7909 216.89 87.6566 178.505 130.643" stroke="#ED9818" stroke-width="4"/>
<path d="M152.214 32.0448C187.219 50.978 195.069 85.2704 162.858 121.343" stroke="#ED9818" stroke-width="4"/>
<path d="M137.447 46.6346C164.174 61.0911 170.169 87.2752 145.574 114.818" stroke="#ED9818" stroke-width="4"/>
</svg>
