<svg width="46" height="45" viewBox="0 0 46 45" fill="none" xmlns="http://www.w3.org/2000/svg">
<rect x="0.514282" width="44.7857" height="44.7857" rx="9.77143" fill="#B8B8B8"/>
<path d="M30.7283 26.5907C30.7283 27.9587 30.4963 29.1068 30.0321 30.0351C29.568 30.9389 28.9328 31.6718 28.1267 32.2337C27.345 32.7711 26.4045 33.1619 25.3052 33.4062C24.2303 33.6261 23.07 33.736 21.8241 33.736C20.8226 33.736 19.7843 33.6749 18.7095 33.5528C17.6346 33.4551 16.572 33.2963 15.5216 33.0764V11.0541C16.3766 10.9075 17.3171 10.7854 18.3431 10.6877C19.3691 10.5655 20.3828 10.5044 21.3844 10.5044C23.0944 10.5044 24.4868 10.6877 25.5617 11.0541C26.6366 11.3961 27.4793 11.8602 28.0901 12.4465C28.7008 13.0084 29.1161 13.6435 29.3359 14.3519C29.5558 15.0604 29.6657 15.7688 29.6657 16.4772C29.6657 17.5521 29.397 18.5048 28.8596 19.3354C28.3466 20.1659 27.6503 20.8255 26.7709 21.3141C28.3099 21.8759 29.3481 22.6332 29.8856 23.5859C30.4474 24.5387 30.7283 25.5402 30.7283 26.5907ZM20.0286 23.5127V29.6687C20.3462 29.7175 20.6882 29.7542 21.0546 29.7786C21.4455 29.803 21.8241 29.8152 22.1906 29.8152C22.7036 29.8152 23.2043 29.7786 23.6929 29.7053C24.1815 29.6076 24.609 29.4488 24.9754 29.2289C25.3663 28.9847 25.6838 28.6549 25.9281 28.2396C26.1724 27.7999 26.2946 27.2502 26.2946 26.5907C26.2946 25.4914 25.9403 24.7097 25.2319 24.2455C24.5479 23.7569 23.6196 23.5127 22.4471 23.5127H20.0286ZM21.7875 19.7751C22.9356 19.7751 23.8028 19.5308 24.3891 19.0422C24.9754 18.5292 25.2686 17.833 25.2686 16.9536C25.2686 16.4162 25.1831 15.9887 25.0121 15.6711C24.8411 15.3291 24.609 15.0726 24.3158 14.9016C24.0227 14.7062 23.6807 14.584 23.2898 14.5352C22.899 14.4619 22.4959 14.4252 22.0806 14.4252C21.7386 14.4252 21.3844 14.4374 21.018 14.4619C20.6516 14.4863 20.3218 14.5229 20.0286 14.5718V19.7751H21.7875Z" fill="white"/>
</svg>
