<svg width="45" height="45" viewBox="0 0 45 45" fill="none" xmlns="http://www.w3.org/2000/svg">
<rect width="44.7857" height="44.7857" rx="9.77143" fill="#B8B8B8"/>
<path fill-rule="evenodd" clip-rule="evenodd" d="M7.22107 36.8895L9.41475 28.881C8.06141 26.5375 7.34973 23.8781 7.35054 21.1543C7.35461 12.6328 14.2891 5.69995 22.8114 5.69995C26.9471 5.70158 30.828 7.31142 33.7472 10.2323C36.6656 13.1539 38.273 17.0364 38.2714 21.1665C38.2682 29.688 31.3321 36.6216 22.8114 36.6216C22.8106 36.6216 22.8114 36.6216 22.8114 36.6216H22.8049C20.2179 36.6208 17.6749 35.9718 15.4169 34.7398L7.22107 36.8895Z" fill="white"/>
<path fill-rule="evenodd" clip-rule="evenodd" d="M7.22112 37.2968C7.11363 37.2968 7.0094 37.2545 6.93205 37.1763C6.83026 37.0729 6.79036 36.9223 6.82863 36.783L8.97753 28.9366C7.64536 26.5703 6.94263 23.8831 6.94426 21.1553C6.94752 12.4082 14.0652 5.29297 22.8114 5.29297C27.0539 5.2946 31.0398 6.94678 34.0355 9.94498C37.0313 12.944 38.6802 16.9291 38.6786 21.1667C38.6753 29.9129 31.5569 37.0289 22.8114 37.0289C20.2147 37.0281 17.6456 36.3873 15.3656 35.1748L7.32453 37.283C7.29033 37.2928 7.25613 37.2968 7.22112 37.2968Z" fill="white"/>
<path fill-rule="evenodd" clip-rule="evenodd" d="M22.8114 5.70003C26.9472 5.70166 30.8281 7.3115 33.7473 10.2323C36.6657 13.154 38.2731 17.0365 38.2715 21.1666C38.2682 29.6881 31.3321 36.6217 22.8114 36.6217H22.8049C20.2179 36.6209 17.6749 35.9719 15.4169 34.7399L7.22111 36.8896L9.4148 28.8811C8.06146 26.5376 7.34977 23.8781 7.35059 21.1544C7.35466 12.6329 14.2891 5.70003 22.8114 5.70003ZM22.8114 4.88574C13.8413 4.88574 6.54037 12.1834 6.5363 21.1544C6.53549 23.8961 7.22763 26.5979 8.54026 28.9894L6.43533 36.6755C6.35879 36.9564 6.43696 37.256 6.64216 37.4629C6.79687 37.6192 7.00614 37.7047 7.22111 37.7047C7.29033 37.7047 7.35954 37.6958 7.42794 37.6778L15.3159 35.6096C17.6187 36.8049 20.2 37.436 22.8049 37.4368C31.7816 37.4368 39.0825 30.1384 39.0866 21.1674C39.0882 16.8199 37.3969 12.7322 34.3246 9.65746C31.2507 6.5819 27.1622 4.88737 22.8114 4.88574Z" fill="#CFD8DC"/>
<path fill-rule="evenodd" clip-rule="evenodd" d="M31.9006 12.0774C29.474 9.64923 26.2486 8.31136 22.8156 8.31055C15.728 8.31055 9.96371 14.0724 9.96045 21.1551C9.95964 23.5825 10.6388 25.9455 11.9253 27.9918L12.2315 28.478L10.9327 33.2179L15.7964 31.9427L16.2663 32.2212C18.2385 33.3922 20.5006 34.011 22.8066 34.0118H22.8115C29.8942 34.0118 35.6585 28.2491 35.6609 21.1657C35.6617 17.7335 34.3271 14.5056 31.9006 12.0774Z" fill="#40C351"/>
<path fill-rule="evenodd" clip-rule="evenodd" d="M18.9468 14.6938C18.6577 14.0505 18.3532 14.0375 18.0771 14.0261C17.8516 14.0163 17.5943 14.0171 17.3369 14.0171C17.0796 14.0171 16.6611 14.114 16.3069 14.5008C15.9527 14.8876 14.9543 15.8216 14.9543 17.7221C14.9543 19.6226 16.3386 21.4597 16.5316 21.717C16.7246 21.9743 19.2041 25.9993 23.1306 27.5481C26.3934 28.8347 27.0579 28.579 27.7663 28.5147C28.4747 28.4503 30.052 27.5807 30.3737 26.6784C30.6953 25.7762 30.6953 25.0034 30.5992 24.8422C30.5023 24.681 30.245 24.5849 29.859 24.3911C29.4731 24.1973 27.5733 23.2633 27.2191 23.1347C26.8649 23.006 26.6076 22.9417 26.3495 23.3285C26.0921 23.7144 25.352 24.5849 25.1264 24.8422C24.9008 25.1003 24.6753 25.1329 24.2893 24.9391C23.9033 24.7453 22.6591 24.3382 21.1828 23.0223C20.0347 21.9987 19.2595 20.7341 19.0339 20.3474C18.8084 19.9614 19.0095 19.7521 19.2033 19.5591C19.3767 19.3857 19.5893 19.108 19.7831 18.8825C19.976 18.6569 20.0404 18.4957 20.169 18.2384C20.2977 17.9802 20.2334 17.7547 20.1365 17.5617C20.0412 17.3679 19.2904 15.4576 18.9468 14.6938Z" fill="white"/>
</svg>
