<svg width="45" height="45" viewBox="0 0 45 45" fill="none" xmlns="http://www.w3.org/2000/svg">
<rect x="0.214233" width="44.7857" height="44.7857" rx="9.77143" fill="#B8B8B8"/>
<path d="M37.8343 30.0472C37.5086 31.7572 36.1243 33.0601 34.4143 33.3043C31.7272 33.7115 27.2486 34.2001 22.2 34.2001C17.2329 34.2001 12.7543 33.7115 9.98573 33.3043C8.27574 33.0601 6.89145 31.7572 6.56574 30.0472C6.24002 28.1743 5.91431 25.4058 5.91431 21.9858C5.91431 18.5658 6.24002 15.7972 6.56574 13.9243C6.89145 12.2143 8.27574 10.9115 9.98573 10.6672C12.6729 10.2601 17.1514 9.77148 22.2 9.77148C27.2486 9.77148 31.6457 10.2601 34.4143 10.6672C36.1243 10.9115 37.5086 12.2143 37.8343 13.9243C38.16 15.7972 38.5672 18.5658 38.5672 21.9858C38.4857 25.4058 38.16 28.1743 37.8343 30.0472Z" fill="#FF3D00"/>
<path d="M18.9429 27.6856V16.2856L28.7143 21.9856L18.9429 27.6856Z" fill="white"/>
</svg>
