<svg width="45" height="45" viewBox="0 0 45 45" fill="none" xmlns="http://www.w3.org/2000/svg">
<rect width="44.7857" height="44.7857" rx="9.77143" fill="#B8B8B8"/>
<path fill-rule="evenodd" clip-rule="evenodd" d="M27.2034 9.48624C29.7444 9.48624 31.5339 9.52905 33.2357 11.5992C34.5922 13.2491 34.5136 14.7003 34.5136 16.7965L37.948 20.1411C37.948 15.6182 38.6035 12.0442 35.2792 8.72062C31.9585 5.39989 28.3858 6.05182 23.8588 6.05182L27.2034 9.48624Z" fill="#9501D6"/>
<path fill-rule="evenodd" clip-rule="evenodd" d="M18.0987 37.9839L15.199 35.1144C14.8945 34.8189 14.8938 34.8582 14.7583 34.5495C13.5485 34.5495 12.2411 33.8372 11.3695 33.0947C9.86915 31.8161 9.73231 30.3508 9.54353 30.0315C9.07125 29.7712 8.17019 28.7354 7.72597 28.2912C7.17228 27.7375 6.57999 27.0785 6.01578 26.5957C6.01578 30.2343 6.01157 32.7537 8.86844 35.5025L10.5092 36.7397C12.9892 38.2379 15.2341 37.9839 18.0987 37.9839Z" fill="#FDD01C"/>
<path fill-rule="evenodd" clip-rule="evenodd" d="M19.7261 14.3145C19.9801 14.7685 20.7773 15.4401 21.1878 15.8506C21.6763 16.3391 22.2805 16.8787 22.6966 17.3777C22.957 17.5166 22.7577 17.4184 23.0721 17.4949C23.9773 17.7173 24.8195 18.0766 25.4889 18.7903C26.0588 19.3973 26.7858 20.6437 26.809 21.7602C27.0518 22.1819 26.6679 21.8696 27.4202 22.6142C27.9507 23.1384 29.3928 24.6767 29.7795 24.9111C30.3479 23.617 30.3851 21.3566 29.9985 20.0359C28.623 15.3411 23.9107 13.0176 20.0124 14.2022C19.745 14.2836 19.9443 14.198 19.7261 14.3145Z" fill="#D013A7"/>
<path fill-rule="evenodd" clip-rule="evenodd" d="M34.3276 30.3678L36.9298 32.9734C37.2596 32.5832 37.515 31.7453 37.6519 31.1923C37.8385 30.4344 37.9536 29.9235 37.9487 28.9818C37.9403 27.3305 37.948 25.6765 37.948 24.0252C37.6519 23.8828 37.635 23.8224 37.4028 23.5845L35.2231 21.4028C34.4027 20.5838 34.722 21.0077 34.5136 20.4062C34.5136 22.4126 34.6055 27.3768 34.5143 29.2618C34.4933 29.6948 34.3613 29.9741 34.3276 30.3678Z" fill="#D013A7"/>
<path fill-rule="evenodd" clip-rule="evenodd" d="M10.5927 7.25754C11.1709 7.9979 12.7036 9.17195 13.0951 9.85617C13.7843 9.67301 14.1969 9.47862 15.1099 9.48283C15.9464 9.48704 16.7829 9.48494 17.6194 9.48494C19.2784 9.48494 20.9373 9.48494 22.5963 9.48494C22.0882 8.913 21.4671 8.34528 20.9022 7.78036C20.4622 7.34035 19.5134 6.53403 19.2545 6.05051C17.7576 6.05051 15.8166 5.94244 14.3744 6.05543C13.2355 6.14455 11.5007 6.67087 10.5927 7.25754Z" fill="#D013A7"/>
<path fill-rule="evenodd" clip-rule="evenodd" d="M14.945 18.3061C15.2334 18.6927 15.7969 19.1896 16.1731 19.5657C16.4903 19.8822 17.1359 20.6801 17.5261 20.7994C17.9155 20.0528 17.999 19.2226 19.2882 18.3033C20.3008 17.5819 21.0363 17.3776 22.6966 17.3776C22.2805 16.8787 21.6763 16.339 21.1878 15.8506C20.7773 15.4401 19.9801 14.7685 19.7261 14.3145C19.3892 14.3467 18.4931 14.7432 18.2138 14.9088C17.1843 15.5194 16.559 15.9875 15.7836 16.9348C15.5008 17.2808 15.0109 17.8408 14.945 18.3061Z" fill="#F11D8B"/>
<path fill-rule="evenodd" clip-rule="evenodd" d="M23.1275 26.7528C23.3149 27.31 25.2574 28.7367 25.6377 29.4448C26.4244 29.2202 27.5732 28.1963 28.1332 27.6132L29.0553 26.4005C29.4005 25.8503 29.5563 25.3324 29.7795 24.9107C29.3928 24.6763 27.9507 23.138 27.4202 22.6138C26.6679 21.8692 27.0518 22.1815 26.8089 21.7598C26.8089 22.5907 26.7942 22.9893 26.5682 23.6349C25.6531 26.2538 23.517 26.5198 23.1275 26.7528Z" fill="#F11D8B"/>
<path fill-rule="evenodd" clip-rule="evenodd" d="M13.9064 22.2949C14.4109 22.6409 15.4152 23.7609 15.9232 24.2697C16.5078 24.8542 21.6594 29.7953 21.7991 30.2788C22.1598 30.2788 22.5324 30.3006 22.8861 30.255C23.1402 30.222 23.6524 30.116 23.9465 30.0936L20.5991 26.6585C20.3408 26.45 20.2833 26.5027 19.9696 26.3497C19.752 26.2437 19.592 26.123 19.3991 25.9925C17.6552 24.8142 17.6973 23.5307 17.3408 22.5511C17.0418 22.417 17.1078 22.4437 16.8706 22.2044L14.3702 19.6738C14.1583 19.8282 14.0537 20.5433 14.0123 20.824C13.9316 21.3686 13.9064 21.6668 13.9064 22.2949Z" fill="#FE4E66"/>
<path fill-rule="evenodd" clip-rule="evenodd" d="M30.9059 34.1779C31.0855 34.7618 32.9059 36.0839 33.3228 36.7765C33.5964 36.6965 34.2084 36.2495 34.4428 36.0565C34.8456 35.7239 35.0505 35.5414 35.4189 35.1765C35.8337 34.766 36.7824 33.5639 36.9298 32.9709L34.3277 30.3652C33.7719 31.5695 34.0828 31.3863 33.0308 32.6951C32.4933 33.3639 31.6154 33.7702 30.9059 34.1779Z" fill="#F11D8B"/>
<path fill-rule="evenodd" clip-rule="evenodd" d="M21.7991 30.2808C21.6594 29.7973 16.5078 24.8562 15.9232 24.2716C15.4152 23.7629 14.4109 22.6428 13.9064 22.2969C13.9064 23.4674 14.2804 24.6471 14.6446 25.4583C14.8495 25.9145 15.0404 26.3081 15.3366 26.7152C15.8355 27.4008 16.1113 27.7832 16.7443 28.278C18.185 29.4043 19.6819 30.2808 21.7991 30.2808Z" fill="#FE6958"/>
<path fill-rule="evenodd" clip-rule="evenodd" d="M7.22281 10.678C7.65369 10.937 8.13229 11.5251 8.51545 11.9082C8.75405 12.1468 8.92528 12.3195 9.16528 12.5574C9.40669 12.7981 9.65231 12.9321 9.74915 13.2935C10.6937 11.577 10.8818 10.8717 13.0951 9.85839C12.7036 9.17417 11.1709 8.00012 10.5927 7.25977C10.3007 7.42328 9.83336 7.71381 9.5709 7.93697C9.24458 8.21276 8.98283 8.42048 8.68388 8.72083C8.30914 9.09838 7.36737 10.1833 7.22281 10.678Z" fill="#F11D8B"/>
<path fill-rule="evenodd" clip-rule="evenodd" d="M22.5963 9.48716H27.2034L23.8588 6.05273H19.2545C19.5135 6.53625 20.4622 7.34257 20.9023 7.78258C21.4672 8.34749 22.0882 8.91522 22.5963 9.48716Z" fill="#B009C2"/>
<path fill-rule="evenodd" clip-rule="evenodd" d="M6.01578 24.591C6.03402 24.6079 6.06069 24.6093 6.06841 24.6409C6.07683 24.6724 6.10981 24.6794 6.12034 24.6907C6.13508 24.704 6.20104 24.7686 6.21929 24.7875L7.74773 26.3202C8.31405 26.8865 8.87616 27.4998 9.4502 28.0121V24.0008C8.94984 23.7187 8.13861 22.7629 7.67965 22.3033C7.14351 21.7671 6.56315 21.1208 6.01578 20.6562V24.591Z" fill="#FEA436"/>
<path fill-rule="evenodd" clip-rule="evenodd" d="M34.5136 20.4046C34.722 21.006 34.4027 20.5822 35.2231 21.4011L37.4028 23.5829C37.635 23.8208 37.6519 23.8812 37.948 24.0236V20.1415L34.5136 16.7969V20.4046Z" fill="#B009C2"/>
<path fill-rule="evenodd" clip-rule="evenodd" d="M28.1079 37.9852C28.677 37.9852 29.2855 38.0273 29.835 37.948C30.5164 37.8498 30.889 37.7403 31.4609 37.614L28.4883 34.5508H24.8588L28.1079 37.9852Z" fill="#FE4E66"/>
<path fill-rule="evenodd" clip-rule="evenodd" d="M28.2013 14.0364C28.2013 16.4091 32.0996 16.6372 32.0996 13.9438C32.0996 11.5136 28.2013 11.2701 28.2013 14.0364Z" fill="#B009C2"/>
<path fill-rule="evenodd" clip-rule="evenodd" d="M6.01579 16.2635L6.21298 16.2481C6.48246 16.3078 6.71123 16.6341 6.96667 16.8902L9.45021 19.4201V15.8446C9.16459 15.7295 7.52247 13.9933 7.06843 13.5393C6.92387 13.3947 6.84246 13.314 6.6993 13.1695L6.29439 12.7793C6.27123 13.1218 6.1786 13.3358 6.13438 13.5976C6.08526 13.8846 6.03824 14.18 6.0207 14.4116C5.97719 14.9667 6.01579 15.6902 6.01579 16.2635Z" fill="#FE4E66"/>
<path fill-rule="evenodd" clip-rule="evenodd" d="M20.3682 37.9852H23.5198C22.9696 37.428 22.437 36.9052 21.8679 36.3354C21.437 35.9045 20.411 35.0245 20.178 34.5508H17.0278C17.3471 35.1543 19.7226 37.2589 20.3682 37.9852Z" fill="#FEA436"/>
<path fill-rule="evenodd" clip-rule="evenodd" d="M6.01578 16.2635V18.6319C6.53017 18.8937 7.30211 19.8263 7.75474 20.2797C8.3344 20.8586 8.87405 21.4235 9.4502 21.9702V19.42L6.96666 16.8902C6.71122 16.634 6.48245 16.3077 6.21297 16.248L6.01578 16.2635Z" fill="#FE6958"/>
<path fill-rule="evenodd" clip-rule="evenodd" d="M25.5437 37.9852H28.1079L24.8588 34.5508H22.1149C22.6959 34.9438 23.3268 35.6869 23.8496 36.2104C24.2995 36.6603 25.2777 37.4926 25.5437 37.9852Z" fill="#FE6958"/>
<path fill-rule="evenodd" clip-rule="evenodd" d="M6.29437 12.7795L6.69929 13.1697C6.84245 13.3143 6.92385 13.395 7.06842 13.5395C7.52246 13.9936 9.16458 15.7297 9.4502 15.8448C9.4502 15.409 9.41441 14.9508 9.47265 14.522C9.52528 14.1325 9.67616 13.71 9.74915 13.2932C9.6523 12.9318 9.40669 12.7978 9.16528 12.5571C8.92528 12.3192 8.75405 12.1465 8.51545 11.9079C8.13229 11.5248 7.65369 10.9367 7.2228 10.6777C6.99543 10.9718 6.86069 11.2869 6.7042 11.6609C6.60946 11.8876 6.35543 12.6911 6.29437 12.7795Z" fill="#FE3A73"/>
<path fill-rule="evenodd" clip-rule="evenodd" d="M18.0987 37.9852H20.3682C19.7226 37.2589 17.3471 35.1543 17.0278 34.5508H14.7583C14.8938 34.8596 14.8945 34.8203 15.199 35.1157L18.0987 37.9852Z" fill="#FEB829"/>
<path fill-rule="evenodd" clip-rule="evenodd" d="M28.4883 34.549L31.4609 37.6122C32.0006 37.4788 32.9311 37.0781 33.3227 36.7764C32.9059 36.0837 31.0855 34.7616 30.9058 34.1777C29.9451 34.3876 29.7732 34.549 28.4883 34.549Z" fill="#FE3A73"/>
<path fill-rule="evenodd" clip-rule="evenodd" d="M23.5198 37.9852H25.5437C25.2777 37.4926 24.2995 36.6603 23.8496 36.2104C23.3268 35.6869 22.6959 34.9438 22.1149 34.5508H20.178C20.411 35.0245 21.437 35.9045 21.8679 36.3354C22.437 36.9052 22.9696 37.428 23.5198 37.9852Z" fill="#FD8B44"/>
<path fill-rule="evenodd" clip-rule="evenodd" d="M6.01578 20.6535C6.56315 21.1181 7.14351 21.7644 7.67965 22.3005C8.13861 22.7602 8.94984 23.716 9.4502 23.9981V21.9672C8.87405 21.4205 8.3344 20.8556 7.75474 20.2766C7.30211 19.8233 6.53017 18.8907 6.01578 18.6289V20.6535Z" fill="#FD8B44"/>
<path fill-rule="evenodd" clip-rule="evenodd" d="M23.9465 30.0933C24.4412 29.9677 25.2476 29.7088 25.6377 29.4435C25.2574 28.7354 23.3149 27.3087 23.1275 26.7515C22.6644 26.7607 22.3949 26.8779 21.7956 26.8456C21.3282 26.821 21.0475 26.6687 20.5991 26.6582L23.9465 30.0933Z" fill="#FE3A73"/>
<path fill-rule="evenodd" clip-rule="evenodd" d="M6.01578 26.5967C6.57999 27.0795 7.17228 27.7385 7.72597 28.2922C8.17019 28.7364 9.07125 29.7722 9.54353 30.0326C9.53511 29.6066 9.45301 29.5687 9.44669 29.0775C9.44248 28.7259 9.4502 28.3659 9.4502 28.0129C8.87616 27.5006 8.31405 26.8873 7.74773 26.3209L6.21929 24.7883C6.20104 24.7693 6.13508 24.7048 6.12034 24.6914C6.10981 24.6802 6.07683 24.6732 6.06841 24.6416C6.06069 24.61 6.03402 24.6086 6.01578 24.5918V26.5967Z" fill="#FEB829"/>
<path fill-rule="evenodd" clip-rule="evenodd" d="M14.3702 19.6719L16.8706 22.2024C17.1078 22.4417 17.0418 22.4151 17.3408 22.5491C17.3408 22.2137 17.3218 21.907 17.3759 21.5856C17.425 21.2929 17.5043 21.0768 17.5261 20.7961C17.1359 20.6768 16.4903 19.8789 16.1731 19.5624C15.7969 19.1863 15.2334 18.6894 14.945 18.3027C14.6376 18.6073 14.3976 19.2375 14.3702 19.6719Z" fill="#FE3A73"/>
</svg>
